<?xml version="1.0" encoding="UTF-8" standalone="no"?>
<!-- Created with Inkscape (http://www.inkscape.org/) -->

<svg
   xmlns:dc="http://purl.org/dc/elements/1.1/"
   xmlns:cc="http://creativecommons.org/ns#"
   xmlns:rdf="http://www.w3.org/1999/02/22-rdf-syntax-ns#"
   xmlns:svg="http://www.w3.org/2000/svg"
   xmlns="http://www.w3.org/2000/svg"
   xmlns:sodipodi="http://sodipodi.sourceforge.net/DTD/sodipodi-0.dtd"
   xmlns:inkscape="http://www.inkscape.org/namespaces/inkscape"
   id="svg4247"
   version="1.1"
   inkscape:version="0.91 r13725"
   width="1255.3125"
   height="684.375"
   viewBox="0 0 1255.3125 684.375"
   sodipodi:docname="Derby.svg">
  <metadata
     id="metadata4253">
    <rdf:RDF>
      <cc:Work
         rdf:about="">
        <dc:format>image/svg+xml</dc:format>
        <dc:type
           rdf:resource="http://purl.org/dc/dcmitype/StillImage" />
        <dc:title></dc:title>
      </cc:Work>
    </rdf:RDF>
  </metadata>
  <defs
     id="defs4251" />
  <sodipodi:namedview
     pagecolor="#ffffff"
     bordercolor="#666666"
     borderopacity="1"
     objecttolerance="10"
     gridtolerance="10"
     guidetolerance="10"
     inkscape:pageopacity="0"
     inkscape:pageshadow="2"
     inkscape:window-width="1600"
     inkscape:window-height="837"
     id="namedview4249"
     showgrid="false"
     inkscape:zoom="0.87946229"
     inkscape:cx="627.65625"
     inkscape:cy="342.1875"
     inkscape:window-x="-8"
     inkscape:window-y="-8"
     inkscape:window-maximized="1"
     inkscape:current-layer="svg4247" />
  <path
     style="fill:#000000"
     d="m 182.7686,683.47196 c -0.79759,-0.46857 -10.71165,-0.94253 -22.03125,-1.05324 -21.4591,-0.2099 -37.87334,-1.58146 -48.23735,-4.0307 -3.35156,-0.79204 -9.67969,-1.84733 -14.0625,-2.34509 -4.382813,-0.49776 -10.078125,-1.36708 -12.65625,-1.93184 -2.578125,-0.56475 -6.585938,-1.24213 -8.90625,-1.50529 -2.320313,-0.26315 -6.75,-1.27234 -9.84375,-2.24265 -5.542933,-1.73844 -15.75969,-3.43902 -18.046875,-3.0039 -0.644531,0.12262 -1.171875,-0.21742 -1.171875,-0.75565 0,-0.53823 -0.860557,-0.9786 -1.912348,-0.9786 -1.051792,0 -3.68851,-0.92903 -5.859375,-2.06451 -2.170865,-1.13548 -4.263433,-1.97923 -4.650152,-1.875 -0.386719,0.10423 -0.703125,-0.2775 -0.703125,-0.84829 0,-0.57079 -0.632813,-0.79498 -1.40625,-0.49817 -0.787572,0.30221 -1.40625,0.0243 -1.40625,-0.63167 0,-1.07965 -4.729416,-3.64439 -7.121683,-3.86205 -2.123405,-0.19319 -9.098829,-8.25921 -9.191419,-10.62847 -0.06003,-1.53607 -0.693866,-2.47141 -1.782682,-2.63067 -3.021105,-0.44189 -6.2364311,-3.17645 -6.8210395,-5.80115 -0.3143761,-1.41145 -1.1648243,-3.89565 -1.8898848,-5.52045 -0.7250604,-1.6248 -1.3198687,-3.52324 -1.3217962,-4.21875 -0.00193,-0.69552 -0.7812727,-2.53995 -1.7318784,-4.09876 -1.67840987,-2.75226 -1.99904963,-10.35663 -0.7807617,-18.51673 0.2135721,-1.43052 0.032734,-2.82069 -0.40186363,-3.08928 -0.43459715,-0.26861 0.044165,-2.04507 1.06391583,-3.94769 C 2.9156584,595.49072 3.75,593.24535 3.75,592.40365 c 0,-0.8417 1.8984375,-4.36143 4.21875,-7.82162 2.320313,-3.4602 4.21875,-6.89106 4.21875,-7.62415 0,-0.73309 0.352367,-1.33288 0.783038,-1.33288 0.923853,0 9.529462,-8.34135 9.529462,-9.23684 0,-2.16724 16.785176,-17.13548 23.078075,-20.57994 1.228934,-0.67267 2.234425,-2.0084 2.234425,-2.9683 0,-1.03753 1.140515,-2.2501 2.8125,-2.99019 1.546875,-0.68471 2.8125,-1.48892 2.8125,-1.78712 0,-0.92254 49.35942,-25.25011 51.2312,-25.25011 0.71183,0 2.0268,-0.43099 2.92215,-0.95775 1.49797,-0.88132 6.50054,-2.92699 25.53415,-10.44158 9.67649,-3.82034 26.59619,-9.72747 38.73821,-13.52459 5.57946,-1.74482 10.50067,-3.39256 10.93604,-3.66165 0.9446,-0.58379 17.52687,-6.63136 23.30062,-8.49775 3.53102,-1.14142 4.42208,-1.13242 6.74367,0.0682 3.31735,1.71547 4.55258,-15.96871 1.46441,-20.96547 -0.26757,-0.43294 -0.55682,-3.70111 -0.64278,-7.26262 -0.086,-3.56151 -0.55605,-7.24606 -1.04464,-8.1879 -0.4886,-0.94184 -0.81667,-4.31684 -0.72903,-7.5 0.0877,-3.18316 0.0949,-11.48288 0.0161,-18.44381 -0.2945,-26.02683 0.0623,-39.76602 1.06401,-40.97302 0.71396,-0.86027 0.71649,-1.56566 0.008,-2.41854 -1.25832,-1.51619 -1.29998,-41.16263 -0.0509,-48.48344 0.48385,-2.83594 1.07785,-8.95313 1.31997,-13.59375 0.88308,-16.92462 1.2015,-19.86323 3.19992,-29.53125 1.11911,-5.41407 2.40981,-11.95313 2.86824,-14.53125 0.45842,-2.57813 1.95539,-9.75 3.3266,-15.9375 1.3712,-6.1875 2.6157,-12.84197 2.76554,-14.78772 0.14985,-1.94574 0.69003,-4.05511 1.20041,-4.6875 0.51037,-0.63238 1.23225,-2.99349 1.60416,-5.24691 0.37191,-2.25341 1.68524,-6.37872 2.9185,-9.16735 1.23326,-2.78864 2.24229,-5.62818 2.24229,-6.31012 0,-0.68195 1.05469,-3.22349 2.34375,-5.64788 1.28907,-2.42439 2.34375,-5.67944 2.34375,-7.23344 0,-1.55399 1.00572,-4.16838 2.23494,-5.80976 1.22922,-1.64137 2.53034,-3.95582 2.89139,-5.14321 1.56642,-5.15149 18.79042,-32.66813 23.5888,-37.68486 1.23296,-1.28907 5.12063,-6.67198 8.63927,-11.96203 6.49027,-9.75774 20.92399,-25.64881 27.7877,-30.59341 2.07028,-1.49144 6.13427,-4.866444 9.03108,-7.500003 2.89702,-2.63361 7.3041,-6.475847 9.79374,-8.538347 2.48962,-2.0625 6.25632,-5.4375 8.37043,-7.5 2.11412,-2.0625 6.14452,-5.013818 8.95647,-6.558483 2.81195,-1.544665 7.92257,-4.336735 11.35693,-6.2046 3.43437,-1.867865 7.44219,-4.221797 8.90625,-5.230959 1.46408,-1.009163 4.01906,-2.375762 5.67774,-3.036887 1.65869,-0.661126 3.50331,-1.789471 4.09917,-2.507434 0.59586,-0.717963 1.66279,-1.305387 2.37095,-1.305387 0.70816,0 5.90461,-2.479648 11.54764,-5.51033 5.64305,-3.030681 11.44557,-5.74447 12.89452,-6.030641 4.20394,-0.830295 11.5873,-3.152184 17.16568,-5.398186 2.83594,-1.141824 7.6875,-3.092628 10.78125,-4.335119 3.09375,-1.242492 6.35755,-2.659385 7.2529,-3.14865 C 433.3045,30.400308 435.41983,30 437.10989,30 c 1.69006,0 5.38718,-0.870434 8.21585,-1.934299 13.80021,-5.190289 23.56683,-8.378201 25.66778,-8.378201 3.46583,0 15.38675,-2.647437 18.73355,-4.160408 1.61105,-0.728298 5.67137,-1.548239 9.02293,-1.82209 3.35156,-0.273851 9.46875,-1.097142 13.59375,-1.829536 4.125,-0.732393 10.66406,-1.833873 14.53125,-2.4477335 3.86719,-0.6138596 9.82901,-1.5679178 13.24851,-2.120129 3.41949,-0.5522111 7.21636,-0.7551206 8.4375,-0.4509099 1.22113,0.3042106 4.75149,0.1455851 7.84524,-0.3525012 C 559.5,6.0061061 566.46094,5.428649 571.875,5.2209544 588.95022,4.5659137 600.31192,3.7626737 605.15625,2.8680652 613.58682,1.3111798 661.5984,0.23656776 677.8125,1.2418474 c 5.41406,0.3356736 12.58594,0.5992587 15.9375,0.5857446 3.35156,-0.013514 9.25781,0.5753279 13.125,1.3085379 3.86719,0.7332099 8.34653,1.1315883 9.95411,0.8852851 1.67634,-0.2568385 4.14345,0.1833669 5.78491,1.0321959 1.57412,0.8140109 8.06352,2.327273 14.42089,3.3628045 6.35736,1.0355318 13.87915,2.5135826 16.71509,3.2845576 2.83594,0.770975 6.25951,1.40678 7.60794,1.4129 1.34844,0.0061 3.45781,0.795779 4.6875,1.754797 1.22969,0.959019 3.50143,1.992487 5.04831,2.296595 1.54687,0.304108 4.92187,0.958873 7.5,1.455034 2.57812,0.49616 9.11719,2.390885 14.53125,4.210501 5.41406,1.819616 12.58594,3.982909 15.9375,4.807321 7.3171,1.799847 11.23364,3.215882 13.125,4.745383 0.77344,0.62546 4.14844,2.088405 7.5,3.250989 8.73617,3.030386 22.7448,9.702263 24.26448,11.556424 1.46075,1.782256 7.86949,4.80166 13.28914,6.26102 1.9866,0.534936 4.15833,1.48914 4.82607,2.120451 0.66773,0.631311 3.37739,2.305956 6.02147,3.721434 2.64407,1.415476 5.80813,3.109207 7.03125,3.763846 1.22311,0.65464 3.56248,2.554784 5.1986,4.222543 1.63612,1.667759 3.83628,3.032289 4.88925,3.032289 1.05297,0 3.30027,1.203183 4.99399,2.673739 1.69373,1.470557 6.03262,4.504163 9.642,6.741348 6.12368,3.795622 10.22385,6.700177 13.59375,9.629808 0.77344,0.672391 3.51562,2.871571 6.09375,4.887071 2.57812,2.015493 7.52109,6.395534 10.98441,9.733404 3.46322,3.33788 6.94368,6.43088 7.73437,6.87334 0.79059,0.44245 1.43747,1.24082 1.43747,1.77414 0,0.53333 2.17125,3.24464 4.82494,6.02516 2.65369,2.7805 5.58431,6.30407 6.51234,7.83015 0.92803,1.52607 2.55375,3.23832 3.61256,3.80499 1.05882,0.56667 1.92516,1.47184 1.92516,2.01146 0,0.53963 1.47656,3.50051 3.28125,6.57974 1.80469,3.07923 3.28125,6.31827 3.28125,7.19787 0,0.87959 0.84375,2.12619 1.875,2.77021 1.03125,0.64403 1.875,2.03352 1.875,3.08775 0,1.05424 1.05469,3.4689 2.34375,5.36594 1.28906,1.89702 2.34375,3.84314 2.34375,4.32469 0,0.48156 1.89844,3.92148 4.21875,7.64427 2.32031,3.72279 4.21875,7.24439 4.21875,7.82579 0,0.58139 0.41306,1.78963 0.91791,2.68498 0.50493,0.89535 2.68068,5.63571 4.83506,10.53415 2.15447,4.89844 5.32733,11.5249 7.05083,14.72548 1.7235,3.20058 3.1337,6.70199 3.1337,7.78093 0,1.07893 0.5836,3.10091 1.2968,4.49327 0.7133,1.39237 1.5986,5.16905 1.9673,8.39262 0.3687,3.22359 1.0507,6.09614 1.5157,6.38346 0.4649,0.28731 0.8452,2.58198 0.8452,5.09924 0,2.51726 0.3888,4.81712 0.8639,5.11078 0.4752,0.29367 1.1426,3.37717 1.4832,6.85221 0.3406,3.47504 1.3193,8.2167 2.1748,10.53701 0.8556,2.32031 1.5945,4.42969 1.6423,4.6875 0.048,0.25781 0.5787,1.65637 1.18,3.10791 1.4438,3.48525 1.3792,4.39209 -0.313,4.39209 -0.7734,0 -1.4062,0.42187 -1.4062,0.9375 0,0.51562 0.3761,0.9375 0.8359,0.9375 1.4088,0 2.0968,4.58262 2.4978,16.63988 0.2114,6.3516 0.8235,12.36921 1.3605,13.37249 0.5369,1.00328 1.1512,6.15702 1.3651,11.45276 0.214,5.29574 0.8324,13.00362 1.3743,17.12862 1.6065,12.22896 2.0385,20.38342 2.2847,43.125 0.2217,20.48704 0.8796,25.7786 3.2053,25.78232 0.3686,5.9e-4 0.7505,12.34043 0.8486,27.42187 0.098,15.08144 0.4484,30.4543 0.778,34.1619 l 0.5993,6.74109 27.3471,-0.0343 c 48.0485,-0.0603 58.7413,0.69052 110.3159,7.74565 3.8672,0.52901 12.1668,2.22682 18.4436,3.77293 6.2768,1.5461 12.8158,2.84516 14.5313,2.88681 1.7153,0.0416 3.3298,0.36136 3.5876,0.71046 0.2578,0.34911 3.2109,1.37878 6.5625,2.28816 7.1937,1.95186 15.9375,5.86166 15.9375,7.12645 0,0.4907 1.1602,1.17532 2.5781,1.52138 1.418,0.34606 3.7706,1.61972 5.2282,2.83036 1.4575,1.21064 3.0246,2.20116 3.4824,2.20116 8.2122,0 17.9675,12.91057 13.2545,17.5416 -0.9388,0.92244 -2.8702,3.70694 -4.292,6.1878 -1.4219,2.48086 -3.1689,4.73468 -3.8825,5.00848 -0.7135,0.27381 -1.5547,1.30874 -1.8692,2.29984 -0.3147,0.99111 -0.9343,1.57807 -1.3772,1.30435 -0.4429,-0.27371 -1.0703,-0.0689 -1.3941,0.45514 -0.3239,0.52404 -1.5132,0.95915 -2.6429,0.96691 -2.6652,0.0183 -8.837,2.17499 -10.2404,3.57849 -0.6022,0.6022 -1.8457,1.09489 -2.7635,1.09489 -1.8377,0 -9.3995,2.79832 -10.1439,3.75384 -0.5569,0.71474 -3.827,2.19226 -5.1562,2.32967 -0.5157,0.0534 -1.859,0.60477 -2.9853,1.22546 -1.1262,0.62069 -2.6028,1.14172 -3.2813,1.15785 -0.6784,0.0161 -3.1829,0.98512 -5.5655,2.15332 -2.3827,1.1682 -6.1323,2.23022 -8.3325,2.36005 -2.2003,0.12981 -6.1571,0.82085 -8.7929,1.53563 -2.6359,0.71477 -7.2527,1.96348 -10.2597,2.77491 -3.0069,0.81142 -5.8274,1.25269 -6.2676,0.98059 -0.4404,-0.2721 -2.2368,0.31197 -3.9922,1.29792 -2.932,1.6468 -5.4224,2.10313 -18.9605,3.47418 -7.3779,0.74719 -9.9207,1.0818 -15.9375,2.09726 -6.5585,1.10686 -5.792,1.0383 -17.6916,1.5824 -5.0898,0.23273 -9.7615,0.84427 -10.3817,1.35897 -0.6202,0.51471 -1.5184,0.586 -1.9959,0.1584 -0.4776,-0.42758 -4.8762,-0.45535 -9.7746,-0.0617 -4.8984,0.39364 -12.4922,0.96553 -16.875,1.27085 -15.0855,1.0509 -21.5625,1.74791 -21.5621,2.32033 3e-4,0.3156 -4.7458,0.65098 -10.5469,0.74529 -5.801,0.0943 -11.9183,0.22321 -13.5941,0.28645 -1.6758,0.0633 -3.5742,0.0489 -4.2188,-0.0318 -0.6445,-0.0807 -3.2812,0.1427 -5.8594,0.49654 -5.6156,0.77072 -5.9647,0.78617 -13.12495,0.581 -5.40591,-0.15491 -14.25741,0.84734 -27.1875,3.07836 -1.54688,0.26691 -7.64231,1.16496 -13.54538,1.99567 -5.90315,0.8307 -11.10234,1.73865 -11.55374,2.01766 -0.4515,0.279 -1.94982,0.62022 -3.32963,0.75826 -4.43738,0.4439 -20.04248,3.42128 -22.16869,4.22966 -1.13249,0.43057 -2.5979,0.44985 -3.25647,0.0428 -1.32203,-0.81706 -4.9363,-0.17119 -4.35007,0.77737 0.20278,0.32809 -1.80587,0.6135 -4.46367,0.63423 -9.27682,0.0724 -24.12283,1.34098 -25.72456,2.1982 -0.88788,0.47518 -4.77693,0.76435 -8.64231,0.6426 -4.01576,-0.12649 -10.0416,0.45488 -14.05923,1.35642 -3.86719,0.86778 -8.50781,1.66444 -10.3125,1.77036 -6.39384,0.37523 -9.07851,0.73208 -10.05689,1.33675 -0.54466,0.33662 -6.71484,1.45328 -13.71149,2.48147 -6.99667,1.02818 -14.53059,2.2868 -16.74204,2.79693 -2.21145,0.51012 -5.91927,0.94237 -8.23958,0.96056 -2.32031,0.0182 -6.19561,0.63299 -8.61176,1.36624 -2.46268,0.74735 -10.66877,1.57456 -18.67525,1.88252 -7.94534,0.30562 -14.82059,0.99617 -15.49561,1.55638 -0.66735,0.55385 -2.81118,1.08914 -4.76407,1.18951 -1.95288,0.10038 -4.01555,0.4698 -4.5837,0.82094 -0.56815,0.35114 -3.39477,0.83039 -6.28137,1.06501 -6.77258,0.55046 -20.8915,2.22276 -33.93199,4.01905 -5.67187,0.78128 -14.92102,2.00062 -20.55366,2.70965 -5.63264,0.70904 -10.4842,1.68189 -10.78125,2.16191 -0.29705,0.48001 -4.33383,0.91363 -8.97062,0.96359 -8.41762,0.0906 -14.17324,0.75957 -15.94447,1.85295 -0.51562,0.31829 -2.20312,0.69906 -3.75,0.84616 -1.54687,0.1471 -3.86719,0.36507 -5.15625,0.48439 -1.28906,0.11931 -2.97656,0.63234 -3.75,1.14007 -0.77344,0.50773 -3.30469,0.98052 -5.625,1.05066 -6.00117,0.18138 -11.01997,0.9976 -16.32645,2.65524 -2.53423,0.79164 -4.80455,1.24251 -5.04514,1.00191 -0.24059,-0.24059 -1.27682,0.0118 -2.30271,0.56082 -1.02591,0.54905 -3.29192,0.99827 -5.03561,0.99827 -1.74367,0 -3.40498,0.37968 -3.69178,0.84375 -0.28681,0.46406 -2.0786,0.84831 -3.98177,0.85389 -1.90316,0.006 -5.53125,0.6384 -8.06241,1.40625 -2.53117,0.76786 -6.05084,1.39611 -7.82149,1.39611 -1.77065,0 -7.48191,0.86865 -12.6917,1.93034 -5.20978,1.06168 -10.47937,1.67759 -11.71019,1.36867 -1.4296,-0.35881 -2.0202,-0.20949 -1.63522,0.41341 0.83971,1.35867 -0.7425,1.22154 -2.27056,-0.1968 -0.76822,-0.71304 -1.02679,-0.75073 -0.6604,-0.0962 0.41395,0.73949 -1.95462,1.43856 -7.57919,2.23697 -4.49971,0.63874 -9.35755,1.49868 -10.79518,1.91099 -1.82881,0.52449 -2.42147,0.43832 -1.97325,-0.28691 0.4355,-0.70465 0.066,-0.79856 -1.15379,-0.29327 -0.98692,0.40881 -3.63541,0.66952 -5.8855,0.57934 -2.72623,-0.10924 -4.68103,0.36994 -5.85938,1.43633 -1.20319,1.08884 -1.76828,1.22215 -1.76828,0.41713 0,-0.75971 -0.58713,-0.94079 -1.64063,-0.50601 -2.78084,1.14769 -8.06332,2.48998 -11.01562,2.79912 -7.92751,0.83007 -19.02223,2.69794 -21.09375,3.55128 -1.28906,0.53101 -2.76563,1.02928 -3.28125,1.10725 -0.51562,0.078 -1.57031,0.40518 -2.34375,0.72713 -3.65292,1.52055 -12.34714,3.39416 -18.28125,3.93963 -3.60938,0.33177 -10.14844,1.38523 -14.53125,2.34101 -4.38281,0.95578 -8.19838,1.36991 -8.47903,0.92026 -0.5929,-0.94989 -4.60405,0.0344 -16.29864,3.99955 -6.57441,2.2291 -9.86226,2.81597 -15.31664,2.73398 -3.81988,-0.0574 -9.35398,0.51977 -12.29801,1.28265 -2.94402,0.76287 -8.49684,1.84971 -12.3396,2.41519 -7.20718,1.06058 -10.66895,1.5982 -26.67433,4.14261 -17.55244,2.79034 -37.48606,5.18674 -43.15299,5.18779 -4.78714,9e-4 -23.47919,2.03784 -31.37826,3.41941 -1.28906,0.22546 -14.78906,0.57315 -30,0.77264 -15.21094,0.19948 -33.35156,0.84001 -40.3125,1.42338 -19.87941,1.66602 -26.60618,1.90067 -28.1689,0.98259 z m -25.66505,-14.21394 c 0.24084,-0.38969 1.70487,-0.26686 3.25341,0.27296 1.91213,0.66657 4.83831,0.68683 9.1199,0.0632 3.46741,-0.50509 7.92596,-0.73734 9.90787,-0.5161 2.16754,0.24195 3.38117,0.0426 3.04558,-0.50046 -0.31213,-0.50504 0.20708,-0.70266 1.17863,-0.44858 0.9551,0.24975 2.4879,-0.29726 3.40624,-1.21559 1.60126,-1.60126 1.64582,-1.59464 1.08737,0.16158 -0.53512,1.68283 -0.14618,1.81854 4.79819,1.67411 10.78381,-0.315 20.77058,-1.08979 21.73575,-1.6863 0.54368,-0.33602 1.37877,-0.36975 1.85575,-0.0749 0.47699,0.29479 1.94106,0.0467 3.25349,-0.55126 1.89116,-0.86167 2.7211,-0.81551 4.00021,0.22247 1.38389,1.12299 1.5006,1.1216 0.81868,-0.01 -0.61417,-1.01899 -0.33507,-1.1992 1.22535,-0.79113 1.11136,0.29062 2.21991,0.20601 2.46345,-0.18803 0.24353,-0.39404 3.7898,-0.67084 7.88061,-0.61511 4.0908,0.0557 7.26009,-0.18593 7.04286,-0.53702 -0.882,-1.42547 1.71749,-1.78086 2.74524,-0.37531 0.78161,1.06891 2.08029,1.39268 4.39075,1.09465 1.80448,-0.23276 3.70274,-0.46106 4.21837,-0.50732 0.51562,-0.0463 -0.11719,-0.91288 -1.40625,-1.92579 l -2.34375,-1.84168 4.45312,0.58371 c 3.81208,0.49967 4.45313,0.35166 4.45313,-1.02811 0,-0.88649 -0.52358,-1.43728 -1.1635,-1.22397 -0.63993,0.21331 -1.766,-0.21465 -2.50238,-0.95103 -2.10244,-2.10245 -22.5439,0.13598 -22.65814,2.48117 -0.0488,1.00304 -0.23711,1.11407 -0.55387,0.32665 -0.5837,-1.45099 -9.76325,-0.52248 -10.84213,1.09669 -0.46924,0.70422 -0.69335,0.64174 -0.70313,-0.19602 -0.0101,-0.8637 -0.93389,-1.08357 -3.10376,-0.73872 -32.87657,5.22484 -134.681605,4.0118 -152.543566,-1.81769 C 51.215995,654.79525 43.952831,652.14351 43.50766,651.42321 43.236336,650.98419 42.181466,650.625 41.163505,650.625 36.365989,650.625 26.25,643.12898 26.25,639.57399 c 0,-0.50479 -0.800783,-1.12722 -1.779519,-1.38316 -2.548988,-0.66658 -4.859038,-4.63953 -5.391262,-9.27221 -0.579794,-5.04673 -0.870314,-5.48112 -3.665797,-5.48112 -2.965266,0 -2.990356,2.30935 -0.04605,4.23853 3.046753,1.99631 3.824203,5.88539 1.117349,5.58939 -2.913933,-0.31866 -3.011097,-0.40566 -1.511872,-1.3538 1.757801,-1.11167 0.613045,-2.33706 -1.445366,-1.54717 -2.373119,0.91065 0.490683,4.70576 3.851662,5.10421 1.755659,0.20815 2.234272,0.56022 1.43396,1.05484 -0.771484,0.4768 -0.957714,1.50974 -0.520535,2.88717 0.597293,1.8819 0.787643,1.9537 1.553158,0.58579 1.269351,-2.2682 2.956096,-1.99966 1.737838,0.27667 -0.779398,1.45633 -0.63325,2.0225 0.707248,2.73991 0.929308,0.49736 2.256695,1.96381 2.949749,3.2588 0.693054,1.29498 2.486507,2.86251 3.985449,3.48338 1.498944,0.62089 4.501138,2.42553 6.671545,4.01033 2.170405,1.5848 4.42217,2.9582 5.003922,3.05199 0.58175,0.0938 3.522484,0.88707 6.534961,1.76282 9.104279,2.64669 18.18856,4.14831 18.18856,3.00654 0,-0.55427 0.527344,-0.34239 1.171875,0.47085 1.173469,1.48063 9.071612,2.88885 22.657953,4.03984 3.567343,0.30223 6.942344,0.83572 7.499997,1.18556 0.557662,0.34983 7.974865,0.72764 16.482675,0.83957 8.50781,0.11193 17.57812,0.5801 20.15625,1.04038 5.68012,1.01408 22.89876,1.0836 23.5098,0.0949 z M 276.5625,658.61709 c 0.77344,-0.19174 2.25,-0.41421 3.28125,-0.49438 1.03519,-0.0804 1.35012,-0.35753 0.70312,-0.6186 -0.64453,-0.26007 -1.17187,-1.07052 -1.17187,-1.80098 0,-1.57196 -5.16369,-1.81355 -8.84522,-0.41383 -7.05471,2.68219 -2.18916,5.36615 6.03272,3.32779 z M 293.85293,656.25 c 0.76508,0 1.04169,-0.82585 0.76369,-2.28011 -0.35056,-1.83381 -0.9215,-2.22175 -2.91687,-1.9819 -1.36455,0.16402 -3.01807,0.34633 -3.67448,0.40512 -0.88245,0.079 -0.78524,0.72997 0.37305,2.49773 0.92369,1.40973 2.11816,2.17915 2.91078,1.875 0.73933,-0.28372 1.88406,-0.51584 2.54383,-0.51584 z m 14.58457,-2.21565 c 1.94408,-0.42712 2.34375,-1.06297 2.34375,-3.72886 0,-2.90428 -0.22581,-3.1774 -2.34375,-2.83485 -1.28906,0.2085 -3.1875,0.47618 -4.21875,0.59484 -1.16459,0.13402 -1.99189,1.04082 -2.18351,2.39333 -0.45308,3.19791 0.53072,5.04734 2.41326,4.53672 0.90489,-0.24545 2.69994,-0.67797 3.989,-0.96118 z m 15.40772,-2.44865 c 2.87915,-1.09465 3.10738,-2.43329 0.52978,-3.10734 -1.03125,-0.26968 -1.875,-1.16263 -1.875,-1.98434 C 322.5,645.625 321.71562,645 320.625,645 c -2.17863,0 -2.52415,2.73598 -0.71198,5.63772 0.63965,1.02426 1.245,1.86228 1.34521,1.86228 0.10021,0 1.26436,-0.41143 2.58699,-0.9143 z m 18.54562,-5.03514 c -0.91071,-3.59519 -3.17845,-6.23806 -5.35262,-6.23806 -2.41068,0 -5.07661,2.60212 -3.67503,3.58708 0.49438,0.34742 1.5926,1.72387 2.4405,3.05877 2.04996,3.22742 7.42372,2.89474 6.58715,-0.40779 z m 12.84423,-3.16046 c -1.69377,-4.45495 -2.62445,-5.06831 -5.1648,-3.4038 -1.24177,0.81363 -2.25777,2.07688 -2.25777,2.80719 0,1.77488 2.81562,2.78087 3.71415,1.32701 0.53067,-0.85864 0.85777,-0.77391 1.28221,0.33214 0.31339,0.81668 1.20541,1.48486 1.98226,1.48486 1.14937,0 1.23207,-0.4745 0.44395,-2.5474 z m 14.3743,0.0705 c 2.42932,-0.684 2.02888,-1.75406 -1.85422,-4.95484 -3.7509,-3.09181 -6.81765,-3.75508 -6.81765,-1.47451 0,0.77344 0.39535,1.40625 0.87856,1.40625 0.48569,0 0.63281,1.51433 0.32902,3.38643 l -0.54955,3.38643 3.18661,-0.64393 c 1.75264,-0.35415 3.92489,-0.85178 4.82723,-1.10584 z m 15,-3.19738 c 4.23375,-1.17578 4.35608,-2.06699 0.77524,-5.64782 -5.35519,-5.3552 -7.99219,-3.03223 -6.73336,5.93148 0.13408,0.95474 1.7812,0.87632 5.95812,-0.28366 z m 18.43297,-4.96456 5.0736,-1.18441 -3.48656,-2.05712 C 402.71178,630.92571 400.74506,630 400.25891,630 c -1.81056,0 -0.80554,-1.7654 1.22546,-2.15261 1.16016,-0.22119 0.21094,-0.27554 -2.10937,-0.12079 -2.32031,0.15475 -4.33225,0.30771 -4.47098,0.33989 -0.24392,0.0565 0.42611,3.48429 1.34004,6.85539 0.51919,1.91505 0.26839,1.90114 6.79828,0.37677 z m 17.88432,-3.39712 c 1.15731,-0.7317 0.83736,-1.4692 -1.875,-4.32198 -2.31714,-2.43711 -2.67214,-3.13145 -1.21793,-2.38211 2.27898,1.17434 3.43603,0.19677 2.53776,-2.14409 -0.41141,-1.0721 -0.0172,-1.49085 1.40321,-1.49085 2.12784,0 2.73151,2.35111 0.80342,3.12911 -0.70006,0.28249 -0.51135,0.50266 0.46875,0.54687 0.90235,0.0407 1.64063,-0.29866 1.64063,-0.75414 0,-1.30758 3.48407,-1.87527 4.60844,-0.7509 0.55911,0.5591 1.01656,1.98686 1.01656,3.1728 0,1.50939 0.54589,2.15625 1.81967,2.15625 2.33189,0 3.32513,-1.60061 1.99088,-3.20828 -0.66719,-0.80392 -0.74415,-2.04593 -0.21531,-3.47456 0.45268,-1.22287 0.64056,-2.85622 0.41753,-3.62966 -0.27463,-0.95236 -0.15317,-1.05308 0.37631,-0.31205 0.43,0.60182 2.14962,0.99952 3.82137,0.88378 1.67176,-0.11574 3.03955,0.15505 3.03955,0.60175 0,0.4467 0.42187,0.55144 0.9375,0.23277 0.55792,-0.34481 0.9375,0.77152 0.9375,2.75717 0,3.20622 1.13002,4.36293 2.34375,2.39908 0.31867,-0.51563 1.6092,-0.9375 2.86783,-0.9375 1.25863,0 2.28842,-0.40864 2.28842,-0.90808 0,-0.49944 0.59014,-0.68162 1.31142,-0.40483 1.90298,0.73023 2.66153,-1.08497 1.02201,-2.44566 -0.76776,-0.63718 -1.39593,-1.73967 -1.39593,-2.44997 0,-0.7103 -0.42188,-1.29146 -0.9375,-1.29146 -0.51563,0 -0.9375,-0.43672 -0.9375,-0.97048 0,-0.6352 0.69692,-0.59751 2.01715,0.10906 1.66311,0.89007 1.92547,0.84061 1.49477,-0.28178 -1.38009,-3.59644 6.25196,-1.29903 8.00832,2.41067 2.04122,4.3114 6.04246,4.75031 5.53827,0.60753 -0.15688,-1.28906 -0.37428,-3.39844 -0.48311,-4.6875 -0.10882,-1.28906 -0.55006,-2.89916 -0.98051,-3.578 -0.96947,-1.52887 -0.44017,-2.10456 2.11164,-2.29679 1.08954,-0.082 1.98097,-0.45604 1.98097,-0.83104 0,-2.85889 7.37297,1.18682 10.62548,5.83045 1.20796,1.7246 1.79175,1.95815 2.67833,1.07157 1.76483,-1.76483 2.82461,-1.33713 2.12767,0.85871 -0.42553,1.34076 -0.29288,1.78259 0.40559,1.35092 1.87079,-1.15622 1.06234,-5.00698 -2.65843,-12.66252 C 481.94687,601.91438 480,601.43688 480,603.10282 c 0,0.76125 -0.63281,1.6269 -1.40625,1.92371 -0.77344,0.29679 -1.40625,0.13099 -1.40625,-0.36845 0,-1.17136 -2.3805,-1.16605 -4.46585,0.01 -1.6347,0.92187 -17.24638,4.94669 -26.0029,6.70376 -2.57813,0.51731 -5.72908,1.14842 -7.00213,1.40244 -1.27305,0.25402 -2.74961,0.80711 -3.28125,1.22907 -0.53164,0.42196 -1.98456,1.08002 -3.22871,1.46234 -1.24415,0.38232 -3.7754,1.35347 -5.625,2.15809 -1.8496,0.80462 -4.06381,1.36701 -4.92048,1.24975 -0.85667,-0.11727 -1.83078,0.22884 -2.16471,0.76914 -0.33392,0.54033 -1.82296,0.98239 -3.30897,0.98239 -1.48601,0 -2.96258,0.42187 -3.28125,0.9375 -0.31867,0.51562 -1.80529,0.9375 -3.30359,0.9375 -1.73384,0 -3.077,0.65923 -3.69468,1.81337 -1.31194,2.45138 -1.22365,2.91244 0.43577,2.27566 0.78007,-0.29935 1.40625,-0.0264 1.40625,0.61296 0,0.80071 0.35777,0.86429 1.17187,0.20827 1.63974,-1.32133 4.74975,0.0657 6.65005,2.96597 1.74451,2.66246 2.26682,2.8454 4.35474,1.5253 z M 11.25,610.71428 c 0,-1.32201 0.155489,-1.31772 1.515067,0.0418 1.999837,1.99983 3.63631,1.34577 3.661306,-1.46337 0.01323,-1.48599 0.563488,-2.26525 1.604631,-2.2724 0.871479,-0.006 2.128048,-0.55832 2.792377,-1.22741 0.987419,-0.99451 0.906257,-1.10171 -0.444695,-0.58737 -0.90891,0.34605 -2.285165,0.10417 -3.058344,-0.53751 -2.546219,-2.11314 -7.007842,-2.08912 -7.007842,0.0378 0,1.02118 -0.3726937,1.85669 -0.8282091,1.85669 -1.2532525,0 -1.8637741,4.55935 -0.6761589,5.04953 1.902098,0.78508 2.441868,0.58664 2.441868,-0.89775 z m 490.7079,-4.92282 c -1.83851,-6.48843 -2.04628,-6.70393 -5.38924,-5.58965 -1.6362,0.54537 -3.31331,1.29351 -3.72692,1.66252 -1.11854,0.99795 3.31166,7.42498 5.1498,7.47099 0.87192,0.0218 1.87952,0.51573 2.23912,1.09757 1.12205,1.81552 2.50433,-1.89894 1.72724,-4.64143 z m -126.67402,-5.08745 c -0.10167,-5.28565 -0.43771,-12.14151 -0.74677,-15.23526 -0.30906,-3.09375 -0.77691,-31.57031 -1.03968,-63.28125 -0.26277,-31.71094 -0.49889,-58.60225 -0.52472,-59.75848 -0.0401,-1.79434 -0.40996,-2.01349 -2.52545,-1.49628 -2.70369,0.66101 -3.90666,1.91795 -3.36266,3.5135 0.19175,0.56238 0.55662,15.5772 0.81083,33.36626 0.2542,17.78906 0.6714,37.82812 0.92708,44.53125 0.90458,23.71393 1.95299,57.25861 1.95584,62.57856 0.003,5.12457 0.11876,5.39108 2.34665,5.39151 l 2.34375,4.5e-4 -0.18487,-9.61026 z m 14.89311,2.34286 c 0.79475,-13.81752 -0.35967,-64.62367 -1.94311,-85.51655 -0.40906,-5.39739 -0.59952,-10.88176 -0.42325,-12.1875 0.29995,-2.22194 0.38325,-25.43592 0.10607,-29.56157 C 387.50468,469.64871 388.20085,465 389.53125,465 c 4.13501,0 1.23141,-2.3925 -3.94237,-3.24841 l -3.94236,-0.6522 0.51878,57.02843 c 0.28533,31.36563 0.48561,58.29405 0.44506,59.84093 -0.0406,1.54687 0.3532,5.34375 0.87497,8.4375 0.52178,3.09375 1.18563,8.57812 1.47523,12.1875 0.28961,3.60937 0.90914,6.96328 1.37675,7.45312 0.46761,0.48985 0.85019,1.65001 0.85019,2.57813 0,5.80269 2.61561,0.9222 2.98949,-5.57813 z m -29.00392,1.17188 c 0.3998,-2.57813 0.41534,-7.85156 0.0345,-11.71875 -0.38084,-3.86719 -0.50055,-12.72656 -0.26604,-19.6875 0.36324,-10.78131 0.25748,-34.70513 -0.21964,-49.6875 -0.20746,-6.51458 -0.13484,-42.51034 0.10633,-52.70318 0.23496,-9.93124 -0.11381,-10.48701 -6.21885,-9.90976 -2.39856,0.22679 -2.6142,0.79553 -0.9375,2.4725 0.88432,0.88448 1.14196,7.19911 1.05001,25.73438 -0.067,13.50927 -0.15808,31.94512 -0.20235,40.96856 -0.12886,26.26508 0.66618,75.93617 1.24463,77.75867 1.20913,3.80964 4.63458,1.76572 5.4089,-3.22742 z m 43.41337,3.82405 c 1.76378,-1.29117 1.81198,-2.71288 1.56548,-46.17187 -0.13988,-24.66182 -0.24034,-56.74013 -0.22325,-71.28512 0.0351,-29.84263 0.41293,-28.39831 -7.42954,-28.39831 -4.45379,0 -4.61156,0.64489 -1.46945,6.00651 1.2882,2.19814 2.1264,4.2124 1.86268,4.47614 -1.21299,1.21298 -0.33238,93.55503 0.955,100.14235 0.55423,2.83594 0.95502,12.22266 0.89064,20.85937 -0.12227,16.40306 0.0736,17.13434 3.84844,14.37093 z m -72.5007,-3.42864 c 0.23295,-1.58722 0.0612,-5.06769 -0.38157,-7.73438 -0.44282,-2.66669 -0.80654,-8.43447 -0.80827,-12.81728 -0.002,-4.38281 -0.20071,-22.3125 -0.44218,-39.84375 -0.64476,-46.81129 -0.64296,-51.04366 0.0289,-67.73438 l 0.61317,-15.23437 -2.7913,0 c -1.5851,0 -3.01878,0.59276 -3.3177,1.37171 -1.0308,2.68624 -0.61649,25.81579 0.46244,25.81579 0.68516,0 0.6368,0.47428 -0.14434,1.4155 -0.86368,1.04067 -1.12242,5.94361 -0.97712,18.51563 0.1087,9.40506 0.18305,20.05324 0.16521,23.66262 -0.17872,36.16159 0.10875,50.14916 1.03076,50.15324 0.37396,0.002 0.23448,1.16317 -0.30995,2.58113 -1.18014,3.0737 -0.28121,13.40243 1.55026,17.8125 0.69594,1.67579 0.97046,3.05334 0.61005,3.06123 -1.08333,0.0237 2.07085,1.83077 3.22269,1.8463 0.58601,0.008 1.25607,-1.28428 1.48902,-2.87149 z m 13.32975,1.28031 c 0.85699,-2.23326 -0.46164,-16.20697 -1.52937,-16.20697 -0.47948,0 -0.55389,-0.51436 -0.16535,-1.14302 0.38853,-0.62867 0.76729,-29.49093 0.84168,-64.13836 l 0.13525,-62.99533 -2.09993,-0.40143 -2.09995,-0.40143 0.0616,28.68042 c 0.0777,36.18803 -0.95275,93.07965 -1.72221,95.08481 -0.32098,0.83645 -0.31716,3.74544 0.008,6.46445 0.32563,2.719 0.82488,7.58036 1.10944,10.80302 0.53568,6.06654 3.79148,8.60294 5.46038,4.25385 z m 171.72981,-0.78071 c 1.751,-2.67237 0.44298,-9.81497 -1.79231,-9.78714 -1.48359,0.0185 -7.95964,2.28004 -8.7274,3.04779 -0.60832,0.60832 7.0328,8.99125 8.27468,9.07799 0.37483,0.0262 1.3851,-1.02621 2.24503,-2.33864 z m -96.75187,-3.56365 c 0.24444,-1.626 0.40774,-3.58917 0.36287,-4.36261 -0.0448,-0.77344 0.23624,-5.83594 0.62467,-11.25 1.3717,-19.11936 2.15061,-118.65592 0.93802,-119.86852 -0.24088,-0.24088 -2.23229,-0.47446 -4.42536,-0.51909 l -3.98738,-0.0811 0.18404,30.46875 c 0.10122,16.75781 0.43677,35.95312 0.74566,42.65625 0.30889,6.70312 0.74762,18.30469 0.97495,25.78125 0.22735,7.47656 0.77834,17.18413 1.22444,21.57238 0.44611,4.38825 0.50476,10.2945 0.13034,13.125 -0.93543,7.07163 2.17787,9.4615 3.22775,2.47773 z m -103.81185,0.0905 c -0.70898,-1.71978 -1.29801,-6.8493 -1.35235,-11.77696 -0.0578,-5.24624 -0.54274,-9.26804 -1.21505,-10.07813 -0.67451,-0.81274 -0.79398,-1.81337 -0.30084,-2.51991 0.63125,-0.90444 0.83261,-57.75674 0.32622,-92.10937 -0.33119,-22.46759 -1.75558,-30.9443 -4.21403,-25.07813 -0.37815,0.90235 -0.79729,21.89063 -0.93142,46.64063 -0.21616,39.88759 0.0497,50.93685 1.81581,75.46875 0.24129,3.35156 0.46152,9.37687 0.4894,13.38958 0.0463,6.66627 0.2327,7.369 2.16005,8.14371 4.03431,1.62159 4.5982,1.25756 3.22221,-2.08017 z m 214.98092,-0.11958 c 0,-0.7103 -0.63281,-1.81664 -1.40625,-2.45854 -1.70241,-1.41287 -1.86822,-6.24126 -0.23438,-6.82478 0.64454,-0.23019 0.82098,-0.79202 0.39211,-1.24852 -0.44203,-0.47049 -1.29894,-0.12002 -1.97836,0.80915 -0.65922,0.90153 -2.10129,1.63915 -3.20459,1.63915 -3.71276,0 -1.61348,5.4694 3.16182,8.23774 2.47795,1.43651 3.26965,1.39918 3.26965,-0.1542 z M 23.704117,599.15223 c 3.354739,-5.67912 -0.552787,-10.47758 -8.256277,-10.13874 -5.5556475,0.24436 -6.0663234,0.7649 -5.072677,5.1706 0.417866,1.85276 0.549814,3.70835 0.293219,4.12354 -0.256597,0.41518 1.165226,0.75487 3.159605,0.75487 1.99438,0 4.445059,0.6194 5.445954,1.37644 2.463707,1.86345 2.591206,1.82642 4.430177,-1.28671 z M 300.9375,600.8372 c 0,-0.57079 0.63281,-0.79498 1.40625,-0.49817 1.20695,0.46314 1.66351,-0.16166 1.61786,-2.21403 -0.15004,-6.74715 -1.46289,-26.75743 -2.3373,-35.625 -0.76754,-7.78373 -1.11625,-27.70362 -1.0385,-59.32282 l 0.11705,-47.60406 -1.99205,0.61116 c -2.56602,0.78723 -2.56999,0.79175 -2.51312,2.85038 0.0265,0.96063 0.26441,28.32471 0.52861,60.80909 0.2772,34.08455 0.87329,60.6484 1.40949,62.8125 0.51103,2.0625 1.06815,5.33095 1.23804,7.26323 0.16988,1.93227 0.53244,3.7368 0.80569,4.01005 0.27326,0.27324 0.19036,2.17277 -0.18422,4.22114 -0.37457,2.04838 -0.31581,3.72433 0.13058,3.72433 0.44639,0 0.81162,-0.46701 0.81162,-1.0378 z m -9.78544,-3.99778 c -0.32963,-1.61325 -0.79391,-6.51911 -1.03174,-10.90192 -0.23782,-4.38281 -0.67351,-12.1875 -0.96821,-17.34375 -1.07259,-18.76706 -1.24,-26.99674 -1.38888,-68.27543 -0.15775,-43.74242 -0.36219,-47.11845 -2.76323,-45.63225 -1.51313,0.9366 -2.29421,58.09297 -0.91781,67.16242 0.34688,2.28569 0.26654,4.38086 -0.17854,4.65593 -0.44508,0.27508 -0.6246,0.79889 -0.39893,1.16402 0.22566,0.36514 0.68125,11.83208 1.01241,25.4821 0.48269,19.89606 0.9884,35.73223 1.3838,43.33383 0.0744,1.43112 3.88891,4.50054 4.85271,3.90487 0.58338,-0.36054 0.74884,-1.83482 0.39842,-3.54982 z m -10.33047,-2.94722 c 0.0222,-2.05478 -0.27249,-8.58751 -0.65484,-14.5172 -0.38235,-5.92969 -0.94975,-24.28125 -1.26087,-40.78125 -0.34331,-18.20734 -1.08274,-33.31669 -1.88108,-38.4375 -0.72348,-4.64063 -1.55639,-13.07813 -1.85092,-18.75 -0.65177,-12.55101 -1.36971,-16.83586 -2.3562,-14.0625 -0.36682,1.03125 -0.53772,4.12812 -0.37977,6.88194 0.15794,2.75383 0.51601,19.62883 0.7957,37.5 0.27968,17.87118 0.92357,37.97743 1.43086,44.68056 0.50729,6.70312 1.19833,16.82812 1.53563,22.5 0.55794,9.38183 0.91127,14.73563 1.19556,18.11561 0.27737,3.29792 3.3872,0.45702 3.42593,-3.12966 z m 267.73751,0.95155 c -0.19094,-1.03125 -0.44866,-3.46866 -0.57272,-5.41646 -0.27296,-4.28566 -0.69222,-4.78586 -3.31394,-3.95376 -1.31431,0.41714 -1.88408,1.2079 -1.61414,2.24019 0.27527,1.05259 -0.17404,1.63998 -1.32054,1.72635 C 540.782,589.51207 540,588.96438 540,588.22298 c 0,-0.74139 -0.42188,-1.34798 -0.9375,-1.34798 -1.43144,0 -1.11829,1.49548 0.61397,2.93209 0.85331,0.70766 2.13563,2.68416 2.8496,4.39222 1.5473,3.70166 6.70099,4.25216 6.03303,0.64444 z m -109.7847,-4.92188 c 0.63492,-3.48046 1.2997,-13.07812 1.47731,-21.32812 0.1776,-8.25 0.51934,-21.11719 0.75943,-28.59375 0.24008,-7.47656 0.0592,-20.34375 -0.40184,-28.59375 -0.4611,-8.25 -1.10491,-21.96094 -1.43068,-30.46875 -1.11947,-29.23553 -5.81408,-16.92216 -6.25507,16.40625 -0.16186,12.23311 1.69319,46.90268 2.58699,48.34887 0.50818,0.82225 1.55551,35.79264 1.38079,46.10425 -0.10487,6.18946 0.52666,5.56065 1.88307,-1.875 z M 562.5,590.66911 c 0,-0.91053 -1.32591,-4.45208 -3.08765,-8.24724 -1.15896,-2.49664 -1.89614,-2.61666 -3.88098,-0.63181 -1.34506,1.34507 -1.17283,1.84942 1.92097,5.625 3.27113,3.99197 5.04766,5.13724 5.04766,3.25405 z M 31.382175,585.98406 c 1.819362,-3.51826 1.797417,-3.79656 -0.299374,-3.79656 -0.951334,0 -2.473339,-0.82171 -3.382233,-1.82603 -2.762544,-3.05258 -8.877228,-2.94161 -11.997443,0.21773 -4.045142,4.09585 -3.43234,5.11266 3.00927,4.99318 4.170218,-0.0773 6.004566,0.3125 7.232143,1.53699 2.346515,2.34064 3.800977,2.03964 5.437637,-1.12531 z m 424.756865,-3.45569 c 0.22798,-2.50779 0.85776,-6.72361 1.39949,-9.3685 0.54174,-2.64487 0.89093,-7.2855 0.77596,-10.3125 -0.11497,-3.02699 -0.0926,-10.01162 0.0496,-15.5214 0.14226,-5.50978 0.0377,-10.37531 -0.23238,-10.81229 -1.03411,-1.67322 -0.4981,-62.86066 0.57719,-65.88868 1.69355,-4.76905 1.49625,-5.625 -1.29668,-5.625 -2.40874,0 -2.72473,0.32958 -2.72473,2.84192 0,1.56306 -0.55987,3.05677 -1.24416,3.31936 -0.95637,0.36699 -1.07323,1.71556 -0.50519,5.82995 0.40645,2.94389 0.77547,13.57908 0.82004,23.63377 0.0446,10.05469 0.22852,24.82031 0.40875,32.8125 0.18025,7.99219 0.38306,23.55445 0.4507,34.58282 0.11806,19.24903 0.63888,24.21556 1.5214,14.50805 z m 119.96682,-0.38432 c -0.323,-5.98641 -0.36791,-6.02056 -6.10511,-4.64423 -5.65356,1.35626 -4.90201,3.4842 1.95627,5.539 3.15009,0.94379 3.60996,1.37023 2.68261,2.48761 -0.88982,1.07217 -0.8281,1.34857 0.30114,1.34857 1.11489,0 1.36545,-1.01746 1.16509,-4.73095 z m 13.90481,-3.00343 c -0.69316,-6.93567 -0.55951,-6.70737 -3.4952,-5.97055 -4.29098,1.07696 -5.34374,2.93411 -3.64841,6.43604 4.00261,8.26798 7.99046,8.00813 7.14361,-0.46549 z m -352.4797,0.15764 c 0.31782,-1.58909 0.13506,-3.71662 -0.40613,-4.72784 -0.54119,-1.01122 -0.87213,-2.98059 -0.73542,-4.37638 0.13671,-1.39578 -0.0609,-6.12373 -0.43914,-10.50654 -0.92291,-10.69413 -1.46877,-25.70001 -1.97841,-54.38681 -0.2337,-13.15494 -0.80458,-25.60783 -1.26861,-27.67311 -0.46404,-2.06527 -0.79392,-9.3373 -0.73307,-16.16006 0.0608,-6.82276 -0.17178,-12.40502 -0.51697,-12.40502 -0.34519,0 -0.8622,-0.61133 -1.14892,-1.3585 -0.33114,-0.86294 -0.0707,-1.18559 0.71399,-0.88448 0.71315,0.27366 1.45517,-0.36679 1.75549,-1.51519 0.48502,-1.85474 0.69932,-1.89909 3.17008,-0.65616 5.43773,2.73547 31.39214,8.00032 29.3443,5.95249 -0.50996,-0.50996 -33.2026,-9.10329 -35.60066,-9.35772 -0.94357,-0.1001 -1.3296,0.56276 -1.17328,2.01464 0.14633,1.35914 -0.14553,1.92991 -0.78479,1.53482 -0.55978,-0.34595 -0.80738,-1.43359 -0.55021,-2.41698 0.33751,-1.29062 -0.31595,-2.19314 -2.3492,-3.24457 -3.63941,-1.88201 -4.15393,-1.2739 -1.41899,1.67714 1.46143,1.57691 1.97242,2.93822 1.55074,4.13132 -0.67609,1.91294 0.68874,6.93569 1.88463,6.93569 0.95088,0 3.33995,46.05322 2.82077,54.375 -0.41282,6.61683 0.30676,16.47579 1.24613,17.07302 0.62973,0.40037 0.69344,0.71704 0.14589,0.72513 -1.25445,0.0186 -0.98588,20.90683 0.36782,28.6081 0.68995,3.92512 0.69234,6.89991 0.007,9.84375 -2.15641,9.27519 -1.67943,14.05845 1.7996,18.04687 2.12696,2.4384 3.64742,1.99653 4.29645,-1.24861 z M 38.684596,576.32812 c 1.15316,-0.64453 2.149715,-1.17187 2.214565,-1.17187 0.06486,0 0.410471,-0.95168 0.768043,-2.11487 1.442447,-4.69224 -12.801926,-7.73817 -15.042974,-3.21669 -0.591127,1.19265 -1.444498,2.11958 -1.896378,2.05985 -0.451881,-0.0597 -0.945084,0.47942 -1.096006,1.1981 -0.202201,0.96286 0.877239,1.32409 4.102342,1.37285 2.673184,0.0404 4.95638,0.64579 5.865923,1.55534 1.795582,1.79557 2.374936,1.83173 5.084485,0.31729 z m 573.172144,-9.78388 c -0.24538,-0.24539 -1.43151,0.0984 -2.63582,0.76399 -1.20432,0.66559 -2.71701,1.10315 -3.36155,0.97237 -1.66486,-0.33783 -1.45834,1.66832 0.2388,2.31957 0.77586,0.29773 2.14219,2.07745 3.0363,3.95495 l 1.62563,3.41363 0.7714,-5.48918 c 0.42427,-3.01904 0.57063,-5.68994 0.32524,-5.93533 z m 9.27886,5.7318 c -0.75139,-1.14675 -0.96548,-2.47752 -0.51569,-3.20531 0.42301,-0.68444 0.5667,-1.77194 0.3193,-2.41664 -1.85394,-4.83129 6.11928,-1.49221 8.15137,3.41368 1.83803,4.43742 3.03581,3.29877 2.29018,-2.17715 -0.69964,-5.13813 -1.82403,-6.68301 -4.19326,-5.76141 -0.77344,0.30086 -3.42165,1.08137 -5.88492,1.73445 -5.66689,1.50247 -5.8384,1.70467 -4.15584,4.89956 0.76556,1.45366 1.89034,3.88665 2.49951,5.40664 0.86477,2.15776 1.29025,2.46803 1.94086,1.41532 0.52922,-0.8563 0.36446,-2.0638 -0.45151,-3.30914 z m -396.48263,-5.15877 c -0.19925,-3.33087 -0.8817,-5.32517 -2.3116,-6.75506 l -2.02887,-2.02887 0,2.55208 c 0,1.40364 -0.46977,2.55208 -1.04394,2.55208 -1.34204,0 -0.14805,8.63472 1.31971,9.54396 2.545,1.57655 4.3537,-1.03289 4.0647,-5.86419 z M 645,569.64604 c 0,-0.7103 -0.63281,-1.81664 -1.40625,-2.45854 -2.06974,-1.71773 -1.71134,-5.19119 0.70312,-6.81443 3.13285,-2.10618 1.59434,-2.73191 -3.84756,-1.56483 -5.3042,1.13755 -5.69799,1.67299 -3.01569,4.10044 0.99475,0.90023 2.4911,3.07499 3.32524,4.8328 1.50168,3.16455 4.24114,4.39475 4.24114,1.90456 z m 10.47983,-7.94482 c -0.21467,-3.43755 0.0416,-4.82622 0.89063,-4.82622 0.7467,0 0.8593,-0.32331 0.30141,-0.86538 -2.42981,-2.36095 -6.11136,0.0337 -5.46812,3.55685 1.63329,8.94578 4.80019,10.52679 4.27608,2.13475 z m -162.81838,3.60286 c 0.82573,-1.33606 1.64629,-9.29766 1.30355,-12.64783 -0.35004,-3.42152 -0.35902,-9.84789 -0.0386,-27.65625 0.13452,-7.47656 -0.0438,-22.03125 -0.39627,-32.34375 -0.35247,-10.3125 -0.69328,-21.07031 -0.75737,-23.90625 -0.10274,-4.54723 -0.35881,-5.19074 -2.16806,-5.44825 -2.00373,-0.2852 -2.56115,2.21323 -1.11983,5.01916 0.96769,1.8839 1.6191,20.24152 0.99658,28.08534 -0.25978,3.27331 -0.4775,20.77608 -0.32652,26.25 0.0569,2.0625 0.20124,7.33594 0.32079,11.71875 0.21624,7.9278 -0.35532,13.84171 -1.66852,17.26384 -0.48081,1.25298 -0.35766,1.58939 0.40849,1.11588 0.80048,-0.49472 1.09682,1.23681 1.09682,6.4087 0,6.46614 0.82113,8.61274 2.34895,6.14066 z m -439.846678,-2.234 2.658522,-2.17498 -2.258137,-2.43657 c -2.054899,-2.21727 -2.789468,-2.40614 -8.161607,-2.09848 -6.467735,0.3704 -11.767868,3.28804 -6.113818,3.36555 1.682078,0.0231 4.060221,1.13322 6.024855,2.8125 3.872405,3.30997 4.410075,3.3464 7.850185,0.53198 z m 422.525248,1.53929 c 0.30176,-7.70729 1.31676,-17.01632 1.9955,-18.30153 0.74295,-1.40679 1.02065,-44.8515 0.47178,-73.80784 l -0.15105,-7.96875 -3.04688,-0.29378 c -3.3493,-0.32293 -3.49661,0.0628 -2.97602,7.79378 0.13888,2.0625 0.22565,4.80469 0.19282,6.09375 -0.42696,16.76261 0.20079,54.9931 1.10836,67.5 0.24321,3.35156 0.45587,9.15234 0.47259,12.89062 0.0228,5.09901 1.75771,10.56857 1.93291,6.09375 z m 193.15911,-2.14235 c 3.01373,-1.6129 2.63122,-10.27952 -0.4537,-10.27952 -5.43566,0 -6.32801,1.8376 -3.8141,7.85426 1.56785,3.75239 1.67464,3.81308 4.2678,2.42526 z m 10.14188,-3.11694 c 0.83942,-1.01145 1.23401,-10.91258 0.43489,-10.91258 -2.49681,0 -4.61223,2.05956 -4.47606,4.35788 0.0871,1.47035 0.21278,3.83353 0.27927,5.25149 0.1303,2.77888 1.99973,3.42649 3.7619,1.30321 z m 10.44264,-2.70946 c 2.04144,-5.44624 1.78782,-11.22611 -0.4642,-10.57907 -1.04539,0.30034 -3.0134,0.79011 -4.37337,1.08837 -2.34745,0.51481 -2.40709,0.66798 -1.17766,3.0243 0.71227,1.36512 1.29763,4.06406 1.30081,5.99765 0.007,4.68359 3.0222,4.98332 4.71442,0.46875 z M 219.375,554.94467 c 0,-1.00082 0.45206,-1.81967 1.0046,-1.81967 1.18796,0 0.87064,-4.61386 -0.44014,-6.39958 -0.60834,-0.82877 -0.55708,-1.46307 0.15374,-1.90239 0.78761,-0.48676 0.83031,-5.18593 0.16331,-17.97542 -0.49669,-9.524 -1.08512,-20.83009 -1.3076,-25.12466 -0.38009,-7.33667 -1.62747,-11.05266 -3.35228,-9.98667 -0.7139,0.44123 -0.38585,11.16676 0.55862,18.26372 0.24017,1.80469 0.60345,9.35034 0.80729,16.76812 0.22115,8.04753 0.76959,13.73344 1.35988,14.09826 0.67094,0.41466 0.56708,1.42516 -0.3228,3.14039 -0.72163,1.39095 -1.15833,3.69517 -0.97043,5.12049 0.18789,1.42531 0.37069,3.98748 0.40622,5.6937 0.0679,3.25808 1.93959,3.37747 1.93959,0.12371 z m 482.46094,1.94313 c 0.58008,-0.007 1.05468,-1.11547 1.05468,-2.46317 0,-1.34771 0.43606,-2.71988 0.96903,-3.04927 1.2097,-0.74763 0.39784,-5.35895 -1.17301,-6.66263 -3.87645,-3.21717 -10.73816,4.17325 -7.17911,7.7323 0.58023,0.58023 1.05497,2.07448 1.05497,3.32056 0,1.892 0.34783,2.17238 2.10937,1.70031 1.16016,-0.31092 2.58399,-0.57106 3.16407,-0.5781 z m 13.34944,-4.93782 c -0.71535,-1.33665 -0.71305,-2.05573 0.008,-2.50136 1.34373,-0.83047 -0.47192,-7.57855 -2.03432,-7.56082 -4.25759,0.0484 -4.90906,0.91933 -4.90906,6.56323 l 0,5.53426 3.96968,-0.0797 c 3.67071,-0.0737 3.89406,-0.22096 2.96571,-1.95562 z m -647.035119,0.0443 c 4.689292,-1.69569 -0.03596,-6.36923 -6.439681,-6.36923 -1.395583,0 -2.81062,-0.44204 -3.144528,-0.98231 -0.369293,-0.59754 -1.548298,-0.0412 -3.009873,1.42045 -2.812651,2.81265 -2.776244,2.87237 3.166135,5.19345 5.508876,2.15175 5.515757,2.15229 9.427947,0.73763 z m 660.466699,-1.4292 c 0.63235,-0.76193 2.11629,-1.75282 3.29763,-2.20197 1.78424,-0.67837 2.14287,-1.49516 2.1181,-4.82421 -0.0263,-3.53338 -0.17719,-3.81345 -1.27524,-2.36696 -0.68497,0.90235 -1.46843,1.64063 -1.74101,1.64063 -0.27259,0 -0.43701,-0.73828 -0.3654,-1.64063 0.13454,-1.6952 -1.43075,-1.82599 -8.32292,-0.69541 -2.77743,0.45561 -2.82812,0.56404 -2.82812,6.04888 l 0,5.58495 3.98361,-0.08 c 2.28406,-0.0458 4.47412,-0.671 5.13335,-1.46532 z m -217.5763,-4.47128 c 0.14089,-1.03125 -0.059,-2.80828 -0.44418,-3.94897 -0.3852,-1.14067 -0.26046,-2.89591 0.27719,-3.90052 1.69478,-3.16672 3.27222,-72.21463 1.68616,-73.80669 -1.59456,-1.60061 -5.8527,1.01997 -5.54924,3.41516 0.16052,1.26694 0.45051,10.95196 0.64443,21.52227 0.19391,10.57031 0.56365,25.75781 0.82164,33.75 0.26458,8.19675 0.0516,16.70175 -0.4884,19.51034 -1.14131,5.93522 -0.50853,8.74794 1.50093,6.67173 0.71241,-0.73608 1.41058,-2.18207 1.55147,-3.21332 z m 234.88964,-1.7568 c 0.81582,-1.61188 2.07457,-3.60703 2.79722,-4.43366 0.87635,-1.00243 1.05941,-2.19093 0.54971,-3.56878 l -0.7642,-2.06583 -2.56669,2.01895 c -2.05799,1.61882 -2.83728,1.79437 -3.93207,0.88578 -2.51894,-2.09054 -4.28918,-0.40513 -3.68248,3.506 0.639,4.11929 1.18182,7.24506 1.28398,7.39371 0.76969,1.11995 5.17637,-1.48739 6.31453,-3.73617 z M 757.5,543.70471 c 0,-0.54053 0.80763,-2.65439 1.79474,-4.69747 1.74179,-3.6051 1.74361,-3.74204 0.0616,-4.64221 -3.84461,-2.05757 -6.03003,-0.4626 -4.61682,3.36947 0.39618,1.07429 0.34207,2.55086 -0.12025,3.28125 -1.38799,2.19286 -0.98291,3.67175 1.00574,3.67175 1.03125,0 1.875,-0.44226 1.875,-0.98279 z M 84.067248,542.26225 c 1.556864,-4.05711 -7.707311,-8.14854 -11.438693,-5.05176 -1.365466,1.13323 -0.985003,1.5572 3.465672,3.86202 5.826908,3.0175 7.193398,3.22141 7.973021,1.18974 z M 771.37,542.24163 c 2.26446,-0.4529 3.22815,-1.43437 4.66294,-4.74893 2.97039,-6.86202 0.91886,-10.65809 -4.24879,-7.86183 -0.89535,0.48449 -2.82528,1.13468 -4.28876,1.44488 -2.21103,0.46866 -2.46792,0.79648 -1.51956,1.93919 0.70468,0.84909 0.95972,2.98628 0.66665,5.58638 -0.51169,4.53972 -0.35867,4.65754 4.72752,3.64031 z m -222.33978,-9.38695 c 0.8598,-4.10173 1.00316,-6.6338 0.40923,-7.22773 -0.59392,-0.59392 -0.57215,-1.55329 0.0622,-2.73849 2.03167,-3.79625 1.76966,-61.63846 -0.27923,-61.63846 -2.49931,0 -3.43057,3.25472 -2.95065,10.3125 0.22789,3.35156 0.41691,15.68527 0.42003,27.40824 0.004,13.67015 0.35361,21.52953 0.9758,21.91407 0.65414,0.40428 0.62878,0.81053 -0.0779,1.24726 -0.86102,0.53214 -1.4857,10.08188 -1.10238,16.85231 0.15166,2.67855 1.2531,0.0235 2.54293,-6.12971 z m 239.5597,4.25501 c 1.94109,-2.24472 3.20285,-9.12942 1.91008,-10.42219 -2.29095,-2.29095 -8.62427,0.14164 -8.63532,3.31678 -0.006,1.63045 -0.27949,4.59384 -0.60848,6.58527 l -0.59817,3.62081 3.18661,-0.64909 c 1.75264,-0.357 3.88801,-1.46021 4.74528,-2.45158 z m -258.10713,0.78093 c 0.0937,-0.64453 0.35433,-3.70312 0.57926,-6.79687 0.40045,-5.5078 1.03648,-11.25923 1.45147,-13.125 0.11468,-0.51563 0.12745,-1.35938 0.0284,-1.875 -0.17688,-0.92045 -0.14992,-5.061 0.23499,-36.09375 l 0.19187,-15.46875 -2.8125,-0.27627 -2.8125,-0.27626 0.10381,35.43251 c 0.0571,19.48789 0.42271,36.38174 0.81246,37.54189 0.773,2.30088 1.95237,2.79831 2.22277,0.9375 z m 271.30678,-3.5629 c 5.50481,-1.52878 6.09597,-12.03965 0.64163,-11.40802 -5.82584,0.67465 -6.02915,0.84861 -5.94672,5.08813 0.16019,8.23785 -0.17278,7.84119 5.30509,6.31989 z m -699.12922,-1.83434 c 0.32091,-0.51927 -0.076,-1.19721 -0.88218,-1.50655 -0.80612,-0.30934 -1.46567,-1.10498 -1.46567,-1.76808 0,-1.55351 -1.546566,-2.0398 -5.625,-1.76869 -1.804688,0.11997 -3.808594,0.2506 -4.453125,0.29028 -2.622007,0.16145 -0.917146,2.56956 2.8125,3.97264 4.7019,1.76885 8.797115,2.10129 9.613475,0.7804 z m 716.55125,-2.57151 c 3.49355,-6.82274 1.04992,-11.20484 -5.45508,-9.78247 -3.13725,0.68599 -3.26294,0.87194 -2.99348,4.42895 0.47506,6.27103 0.93239,6.99415 4.4234,6.99415 2.08839,0 3.47434,-0.5649 4.02516,-1.64063 z m 14.92902,-2.80861 c 1.80359,-2.36111 1.45648,-8.12759 -0.60133,-9.98989 -2.14251,-1.93895 -8.29709,-0.81662 -7.74955,1.41318 0.17655,0.71896 0.44052,2.78376 0.58661,4.58845 0.5404,6.6755 4.25431,8.58322 7.76427,3.98826 z m 16.48024,-3.01437 c 1.44475,-1.38851 1.76346,-7.93682 0.46617,-9.57805 -2.56666,-3.24716 -11.64006,-2.01041 -10.70875,1.45966 0.29349,1.09354 0.53938,3.82912 0.54642,6.07907 l 0.0127,4.09083 4.45313,-0.65233 c 2.44922,-0.35878 4.80282,-0.98841 5.23024,-1.39918 z M 125.625,523.064 c 0,-0.9198 -12.91776,-7.439 -14.74033,-7.439 -0.44039,0 -2.47195,0.85563 -4.51457,1.90139 -3.64483,1.86607 -3.66158,1.89785 -0.90135,1.71045 1.54688,-0.10502 4.28906,0.29262 6.09375,0.88364 13.30413,4.35697 14.0625,4.51571 14.0625,2.94352 z m 740.59447,-2.26388 c 3.85223,-2.38082 -0.87207,-12.41054 -5.78229,-12.27583 -4.82715,0.13244 -5.23432,2.42004 -1.93131,10.85071 0.30301,0.77344 0.64011,1.72266 0.7491,2.10937 0.10899,0.38672 0.25089,0.88462 0.31534,1.10643 0.13526,0.46551 5.20983,-0.90113 6.64916,-1.79068 z m -725.12572,-2.50607 c 1.25693,-1.27137 -4.85567,-6.41905 -7.62229,-6.41905 -3.21124,0 -4.96501,-0.96385 -4.40571,-2.42134 0.28042,-0.73076 0.0428,-1.32866 -0.52795,-1.32866 -0.57079,0 -1.0378,0.42188 -1.0378,0.9375 0,0.51562 -0.63281,0.9375 -1.40625,0.9375 -0.77344,0 -1.40625,0.44677 -1.40625,0.99283 0,0.54606 0.43881,0.72162 0.97513,0.39016 0.53633,-0.33146 1.83257,0.48739 2.88054,1.81967 1.04798,1.33229 2.51666,2.42234 3.26372,2.42234 0.74707,0 1.85061,1.08048 2.45231,2.40106 1.12618,2.4717 4.52413,2.60495 6.83455,0.26799 z M 878.25,518.25 c 2.45314,-2.45314 0.43732,-12.94883 -2.48234,-12.9247 -4.31325,0.0356 -5.94671,1.14123 -5.36937,3.63418 0.31166,1.34572 0.6939,3.66137 0.84941,5.14588 0.43385,4.14138 4.56207,6.58487 7.0023,4.14464 z m -614.5965,-7.07385 c -0.11219,-8.07759 -0.26186,-8.84512 -1.05209,-5.3949 -0.71475,3.12067 -0.2156,13.08293 0.61395,12.25339 0.28935,-0.28935 0.48651,-3.37567 0.43814,-6.85849 z m 304.53352,3.81697 c 3.58717,-9.43496 1.31821,-59.76865 -2.42149,-53.71768 -0.77505,1.25405 -0.75881,34.65717 0.0178,36.67661 0.32697,0.85019 0.15997,1.81434 -0.37111,2.14256 -0.65411,0.40427 -0.66224,1.39464 -0.0252,3.0702 0.51722,1.36038 0.68628,3.63039 0.37571,5.04446 -1.18711,5.40487 0.81669,11.01211 2.42428,6.78385 z m 320.56298,0.561 c 0,-0.44428 0.63381,-0.56456 1.40844,-0.2673 2.12339,0.81482 5.15496,-3.37379 4.50494,-6.22432 -0.94822,-4.15824 -4.03573,-6.70991 -7.27874,-6.0155 -4.21274,0.90207 -4.28057,1.03317 -2.76124,5.33669 0.76893,2.17803 1.17591,4.84664 0.9044,5.93025 -0.27152,1.08361 -0.24916,2.2147 0.0497,2.51354 0.72696,0.72697 3.17251,-0.2546 3.17251,-1.27336 z m -731.27501,-4.11773 c 1.27801,-1.53991 -4.45805,-5.52239 -10.28749,-7.1425 -2.32031,-0.64486 -4.59979,-1.50348 -5.0655,-1.90805 -1.10246,-0.95773 -4.53031,0.87343 -3.81168,2.03619 0.30268,0.48976 1.66292,0.89047 3.02275,0.89047 2.71573,0 9.21198,4.07747 10.58569,6.64427 0.94478,1.76532 3.88804,1.48966 5.55623,-0.52038 z m 752.32465,1.22562 c 3.12245,-1.42268 3.51505,-5.69516 0.89131,-9.69951 -0.72739,-1.11013 -1.0398,-2.30115 -0.69424,-2.64672 1.02825,-1.02824 -8.71568,-0.71249 -11.5763,0.37515 -2.33526,0.88787 -2.45023,1.10914 -0.99854,1.92158 0.90235,0.50498 1.64063,1.66031 1.64063,2.56739 0,0.90708 0.6194,2.46815 1.37644,3.46904 0.75703,1.00089 1.38984,2.55809 1.40625,3.46044 0.0355,1.95586 4.23444,2.24759 7.95445,0.55263 z m -326.58303,-3.83389 c 1.60893,-5.82045 1.79024,-8.47149 0.6716,-9.81938 -0.67172,-0.80936 -0.67913,-1.19624 -0.0229,-1.19624 1.81734,0 3.61716,-36.26753 1.88575,-37.99895 -3.05615,-3.05614 -4.60634,4.48275 -3.9581,19.24895 0.64129,14.60752 0.46305,26.87763 -0.42533,29.28052 -0.71353,1.92995 -0.49016,4.46948 0.39312,4.46948 0.19497,0 0.85011,-1.79297 1.45587,-3.98438 z m 342.40661,0.70874 c 5.69881,-2.38111 5.24189,-13.95544 -0.47924,-12.13963 -0.98805,0.3136 -2.32885,0.12833 -2.97956,-0.41171 -0.82661,-0.68602 -2.21355,-0.66562 -4.60298,0.0677 l -3.41989,1.04959 1.83547,2.57768 c 1.00951,1.41773 1.83548,3.36791 1.83548,4.33374 0,4.8048 2.99076,6.53652 7.81073,4.52261 z m 30.06578,-6.80249 2.39475,-7.26562 -2.89219,-2.65457 c -2.25787,-2.07228 -3.43537,-2.51826 -5.36812,-2.03317 -3.50888,0.88067 -3.69366,1.34374 -1.30782,3.27809 1.26525,1.02579 2.10938,2.74606 2.10938,4.2986 0,1.42363 0.71728,3.38105 1.59403,4.34983 1.31578,1.45384 1.41178,2.24431 0.55022,4.52694 -0.57413,1.52104 -0.69094,2.76553 -0.2595,2.76553 0.43144,0 1.86206,-3.26953 3.17925,-7.26563 z m -193.05775,3.28125 c 1.85042,-8.14081 2.16641,-11.9854 1.90705,-23.20312 -0.16094,-6.96094 0.0722,-14.13281 0.51808,-15.9375 0.44589,-1.80469 1.05493,-5.22913 1.35343,-7.60988 0.47936,-3.82316 0.87488,-4.42527 3.38709,-5.15625 3.23126,-0.9402 3.60435,-2.20127 1.12463,-3.80141 -2.51654,-1.62389 -8.15556,1.25493 -8.58949,4.38509 -0.17831,1.28629 -0.77819,2.89121 -1.33306,3.56649 -0.55488,0.67528 -1.10981,2.57372 -1.23317,4.21875 -0.12337,1.64503 -0.52959,5.31127 -0.90271,8.14721 -0.37313,2.83594 -0.62773,6.42187 -0.56578,7.96875 0.32522,8.12174 0.65602,11.71871 1.07768,11.71841 0.25781,-1.8e-4 0.4284,2.68784 0.37908,5.97339 -0.15104,10.06177 1.51844,15.70767 2.87717,9.73007 z m 178.77934,0.55783 c 0.94294,-0.85335 1.71441,-2.35765 1.71441,-3.34288 0,-0.98523 0.40941,-2.55628 0.90975,-3.4912 1.94053,-3.626 -7.00657,-9.26755 -9.9808,-6.29332 -1.05738,1.05737 3.5803,14.67895 4.99771,14.67895 0.35446,0 1.416,-0.69819 2.35893,-1.55155 z m -765.12564,-3.07064 c -1.0542,-1.9698 -7.23099,-5.14516 -9.68328,-4.97798 -0.92376,0.063 -3.36083,-0.47867 -5.4157,-1.20367 -2.69312,-0.95019 -4.41972,-1.05828 -6.18482,-0.38719 -3.36028,1.27758 -2.60906,1.70481 6.49617,3.69456 4.3504,0.95069 9.31418,2.58257 11.03063,3.6264 3.49766,2.12706 5.12368,1.80154 3.757,-0.75212 z m 18.27769,-1.05359 c 1.20994,-1.95775 -8.20078,-8.67704 -13.55712,-9.67982 -3.12246,-0.58457 -3.06621,-0.4963 1.99145,3.12542 2.86256,2.04983 5.42918,4.5855 5.70357,5.63483 0.53906,2.06134 4.74836,2.72164 5.8621,0.91957 z M 1224.375,502.09228 c 0,-2.05077 -1.7228,-6.13647 -3.218,-7.63163 -1.3729,-1.37303 -4.7171,-1.89081 -4.0851,-0.63253 0.1942,0.38672 1.2691,2.70704 2.3885,5.15625 1.9203,4.2013 4.9146,6.09483 4.9146,3.10791 z m -256.02919,-3.48217 c 2.12906,-6.1074 1.0006,-7.68037 -6.35344,-8.85632 -4.4834,-0.71694 -5.1584,0.60708 -1.52362,2.98867 1.28906,0.84462 2.34375,2.10012 2.34375,2.79 0,5.34823 3.97172,7.5573 5.53331,3.07765 z m 15.22753,0.44165 c 5.57916,-4.88962 0.64782,-13.83259 -6.86972,-12.45793 -4.88399,0.89311 -6.17681,2.19194 -4.17459,4.19411 0.84338,0.84343 1.53347,2.32221 1.53347,3.28619 0,0.964 0.44794,2.02953 0.99534,2.36786 0.54741,0.33833 1.39154,1.65718 1.87575,2.93077 0.95682,2.51665 3.5446,2.39154 6.63975,-0.321 z m 228.89596,0.97895 c 0.3268,-0.32686 -0.2357,-1.64938 -1.25,-2.93893 -1.0143,-1.28955 -1.8443,-2.8689 -1.8443,-3.50966 0,-1.58863 -2.4386,-3.49469 -3.9823,-3.11266 -2.4231,0.59962 -0.098,8.00088 2.853,9.08008 3.2036,1.17179 3.4993,1.20547 4.2236,0.48117 z M 207.84682,496.57466 c -2.03913,-3.07112 -7.45014,-7.12715 -10.78333,-8.0831 -4.30641,-1.23507 -3.69762,0.29702 1.27632,3.21195 2.35251,1.37866 5.36491,3.72732 6.69422,5.21925 2.70675,3.03784 4.88222,2.76862 2.8128,-0.3481 z m 790.81587,0.92914 c 2.19891,-3.38592 2.64911,-8.16361 0.98484,-10.45055 -1.83309,-2.51886 -4.96003,-3.16597 -4.96003,-1.02647 0,0.73662 -0.61819,1.95752 -1.37381,2.71314 -2.62585,2.62581 -0.81328,11.22919 2.20603,10.47137 1.33669,-0.33547 2.751,-1.10384 3.14297,-1.70749 z m 13.82271,-1.55591 c 7.2098,-5.13384 2.9922,-13.41346 -6.3282,-12.42308 l -3.9991,0.42494 2.089,3.41575 c 1.1489,1.87866 2.6321,3.97322 3.296,4.65459 0.6638,0.68136 1.2069,2.26339 1.2069,3.51563 0,2.75923 0.3803,2.80119 3.7354,0.41217 z m 184.3611,-3.32304 c -1.0075,-3.94934 -4.3865,-7.45169 -4.3323,-4.49046 0.061,3.32807 4.1387,10.52513 5.3037,9.36027 0.1187,-0.11874 -0.3184,-2.31015 -0.9714,-4.86981 z m -166.3022,3.07827 c 2.6691,-7.23377 -2.3952,-14.35123 -9.5145,-13.37205 l -4.8152,0.66226 2.607,2.96926 c 1.4339,1.63311 3.1968,4.75649 3.9178,6.94084 1.3457,4.0774 6.6335,5.97422 7.8049,2.7997 z m 156.3989,-3.85911 c -2.1654,-3.43334 -6.784,-7.06421 -5.0543,-3.97329 0.5451,0.97382 0.7989,2.50507 0.5641,3.40277 -0.5025,1.92171 3.0579,4.76887 5.0213,4.01542 1.0811,-0.41484 0.9844,-1.04184 -0.5311,-3.4449 z m -586.63349,1.04661 c 2.44179,-10.04066 2.5551,-34.92187 0.15904,-34.92187 -2.08407,0 -1.95364,-1.09391 -2.57101,21.5625 -0.39417,14.46519 0.68689,20.45294 2.41197,13.35937 z M 631.875,482.1875 c 0,-7.04687 -0.25568,-12.55682 -0.56818,-12.24432 C 630.31001,470.93999 629.98034,495 630.9635,495 c 0.54587,0 0.9115,-5.13947 0.9115,-12.8125 z m 428.0182,9.90434 c 1.4109,-2.72835 1.3931,-3.03268 -0.2884,-4.92188 -0.9858,-1.10754 -2.702,-3.03769 -3.8137,-4.28924 -2.4455,-2.75315 -3.3787,-2.1803 -2.0674,1.26904 0.5301,1.39414 0.9638,3.32362 0.9638,4.28774 0,5.98276 2.9359,8.0437 5.2057,3.65434 z m 16.0329,-0.84184 c -0.5505,-2.0625 -1.4618,-3.75 -2.0252,-3.75 -0.5633,0 -1.5272,-1.39092 -2.1419,-3.09095 -3.0993,-8.57076 -6.6932,-8.29171 -3.7935,0.29456 1.0463,3.09848 2.3107,5.35577 2.8224,5.03942 0.5137,-0.31741 0.7991,0.20449 0.6399,1.17012 -0.4153,2.52033 0.8653,4.08685 3.341,4.08685 2.0597,0 2.1125,-0.17112 1.1573,-3.75 z m -31.159,2.24345 c 1.9499,-0.74826 1.9065,-4.72575 -0.064,-5.8283 -1.0184,-0.56995 -1.3634,-1.56609 -1.0101,-2.91702 0.9128,-3.49056 -6.3555,-6.88361 -10.9604,-5.11658 -2.3248,0.8921 -1.7772,2.42515 2.268,6.34921 2.062,2.00036 3.7491,4.35582 3.7491,5.23437 0,2.74909 2.4112,3.66205 6.0171,2.27832 z m 114.383,-3.39719 c -0.365,-1.15018 -1.4978,-3.21945 -2.5173,-4.59838 -1.0195,-1.37892 -1.5681,-2.96911 -1.2192,-3.53375 0.3614,-0.58466 -0.028,-1.02663 -0.9051,-1.02663 -0.8469,0 -1.3856,0.31641 -1.1971,0.70312 1.716,3.52197 2.5797,5.78026 3.0478,7.96875 0.3134,1.46499 1.1782,2.57813 2.0031,2.57813 1.075,0 1.2794,-0.54256 0.7878,-2.09124 z m 12.1795,1.52219 c 2.8575,-1.09652 -1.7637,-9.74345 -5.2071,-9.74345 -1.8932,0 -2.3467,1.39398 -0.7705,2.36816 0.5373,0.3321 1.6379,2.25543 2.4455,4.27407 0.8078,2.01865 1.5992,3.67027 1.7589,3.67027 0.1596,0 0.9575,-0.25607 1.7732,-0.56905 z m -44.1848,-3.02416 c -0.302,-0.85967 -1.3777,-2.4847 -2.3903,-3.61117 -1.0127,-1.12646 -2.1249,-3.44677 -2.4716,-5.15625 -0.5382,-2.65348 -1.0711,-3.1511 -3.6441,-3.40189 -3.5816,-0.34913 -4.069,1.58229 -1.1388,4.51252 1.0313,1.03125 1.875,2.34201 1.875,2.9128 0,0.57079 0.6604,0.78438 1.4676,0.47465 1.1266,-0.43231 1.3297,-0.12888 0.8743,1.30595 -0.4126,1.30008 -0.1651,1.8691 0.813,1.8691 0.7734,0 1.6672,0.82222 1.9862,1.82716 0.3365,1.06052 1.125,1.618 1.8789,1.32866 0.7416,-0.28454 1.0634,-1.16934 0.7498,-2.06153 z m 20.5459,-2.7295 c -1.0009,-1.42095 -2.1144,-3.53276 -2.4746,-4.69292 -0.3602,-1.16015 -1.2594,-2.10937 -1.998,-2.10937 -1.8706,0 -1.6751,1.28396 0.4947,3.24757 1.0108,0.91475 1.7709,1.92936 1.6893,2.25468 -0.2866,1.14133 1.4238,5.28598 2.4587,5.95744 1.8345,1.19039 1.7189,-1.97557 -0.1701,-4.6574 z m -43.762,1.70586 c -0.3397,-1.07011 -1.011,-1.94565 -1.4919,-1.94565 -0.4808,0 -0.8743,-0.63281 -0.8743,-1.40625 0,-0.77344 -0.6231,-1.40625 -1.3846,-1.40625 -0.7616,0 -2.0331,-0.98966 -2.8257,-2.19925 -1.6063,-2.45165 -5.7761,-4.71174 -6.508,-3.52749 -0.2601,0.42079 0.5599,1.23566 1.8223,1.81083 1.2624,0.57517 3.7992,3.13923 5.6374,5.69791 4.1607,5.79129 6.9941,7.29052 5.6248,2.97615 z m 32.3213,1.28244 c 0,-1.32088 0.1978,-1.32088 2.0836,0 2.9665,2.07783 3.6622,1.81283 2.4168,-0.92057 -0.6781,-1.4884 -1.5931,-2.18474 -2.4425,-1.85881 -0.7469,0.28663 -1.9476,0.0319 -2.6681,-0.56613 -1.7823,-1.47917 -2.5511,-0.46256 -1.8282,2.41751 0.653,2.60218 2.4384,3.28163 2.4384,0.928 z m -518.97525,-9.12021 c 0.33764,-3.72027 0.57944,-9.50632 0.53733,-12.85788 -0.0421,-3.35156 -0.0855,-6.83203 -0.0963,-7.73438 -0.0225,-1.8704 -2.5645,-2.24487 -3.18203,-0.46875 -0.63512,1.82671 -1.23055,28.20072 -0.66967,29.66279 1.02402,2.66939 2.79256,-1.79083 3.41071,-8.60178 z m 495.30185,7.35274 c -0.9015,-0.65922 -1.6391,-1.62776 -1.6391,-2.15231 0,-0.52455 -0.6328,-1.47891 -1.4062,-2.12081 -1.7115,-1.42032 -1.8489,-0.12209 -0.3382,3.19356 0.5875,1.28934 1.7477,2.49717 2.5781,2.68404 2.2676,0.51024 2.6516,-0.25455 0.8054,-1.60448 z m -26.708,-1.7939 c -0.9748,-1.10575 -2.4928,-3.17063 -3.3733,-4.5886 -0.9863,-1.58814 -2.4027,-2.56605 -3.6888,-2.54669 -1.8478,0.0279 -1.6743,0.36907 1.511,2.97013 1.9793,1.61627 3.9824,3.94783 4.4514,5.18123 0.4735,1.24548 1.3015,1.96508 1.8623,1.61847 0.6627,-0.40959 0.4007,-1.31502 -0.7626,-2.63454 z m -187.08746,-4.60769 c 0.27765,-1.90013 0.50206,-10.71638 0.34553,-13.57465 -0.28637,-5.22929 -1.52161,0.69481 -1.62649,7.8005 -0.12057,8.16791 0.51352,11.02615 1.28096,5.77415 z m 56.40845,-7.56716 c 0.71916,-0.86657 0.93253,-7.24727 0.6855,-20.50238 -0.49068,-26.32944 -0.81459,-26.71133 -18.37509,-21.66775 -8.12551,2.33374 -8.21145,2.3862 -5.07442,3.09765 1.59189,0.36102 3.41145,0.97599 4.04345,1.36659 0.64789,0.40042 1.91541,0.0167 2.90597,-0.87973 0.96628,-0.87446 2.20828,-1.31093 2.76,-0.96992 0.55181,0.34101 1.25634,-0.0396 1.56572,-0.84566 2.23312,-5.81965 7.91503,2.50837 7.86084,11.52194 -0.0384,6.33032 0.5655,27.56755 0.83635,29.43426 0.16181,1.11491 1.65159,0.81873 2.79168,-0.555 z m -306.87611,-7.67026 c 0.47152,-5.03176 1.09609,-7.28721 2.18878,-7.90411 1.97697,-1.11614 0.16817,-3.18331 -2.3558,-2.69231 -1.55147,0.30182 -1.74021,1.31839 -1.74021,9.37293 0,10.60918 0.96944,11.23107 1.90723,1.22349 z m 20.08174,-1.03495 c 0.0232,-1.61264 -0.55506,-3.42782 -1.28513,-4.03372 -1.93606,-1.60679 -2.74719,1.70223 -1.89323,7.72344 l 0.69032,4.86737 1.22287,-2.8125 c 0.67258,-1.54688 1.24191,-4.13194 1.26517,-5.74459 z m 321.98784,1.69586 c -0.0647,-3.06216 -0.693,-4.6561 -2.57812,-6.5412 l -2.49244,-2.49246 -0.14278,4.19745 c -0.0788,2.30859 -0.21028,4.83025 -0.29269,5.60369 -0.23344,2.18893 1.48106,3.86857 3.63469,3.56087 1.65525,-0.23649 1.94381,-0.90401 1.87134,-4.32835 z m -164.44556,0.82281 c 0,-0.48519 -0.44712,-1.15851 -0.9936,-1.49625 -0.6555,-0.40512 -0.53453,-0.98222 0.3555,-1.69596 0.742,-0.59503 1.6078,-3.19125 1.92399,-5.76937 0.56752,-4.62733 5.12594,-10.76453 6.01479,-8.09797 0.24946,0.74838 0.87714,0.76993 2.17621,0.0747 1.00409,-0.53737 1.57798,-1.37776 1.27529,-1.86751 -0.9396,-1.5203 0.47943,-0.98064 2.58879,0.98454 2.04159,1.902 6.34653,2.58993 6.34653,1.01416 0,-2.11488 -1.27824,-3.82668 -2.85747,-3.82668 -0.94566,0 -2.00282,-0.45863 -2.34926,-1.01918 -0.45359,-0.73393 -0.91516,-0.73393 -1.64909,0 -0.56055,0.56055 -2.20043,1.01918 -3.64418,1.01918 -1.70833,0 -2.625,0.49107 -2.625,1.40625 0,1.68672 -1.09222,1.81403 -2.60285,0.3034 -1.23063,-1.23063 -5.04253,1.46521 -4.75569,3.36332 0.0848,0.56142 -0.19911,1.83923 -0.63101,2.83956 -0.48905,1.13268 -0.40752,1.9447 0.21613,2.15258 0.68658,0.22886 0.60421,1.65362 -0.26202,4.53187 -1.24829,4.14778 -0.99112,6.96552 0.63574,6.96552 0.46046,0 0.8372,-0.39698 0.8372,-0.88217 z M 632.82263,461.6998 c 0.96122,-1.79603 1.00296,-2.62421 0.17405,-3.45312 -1.39223,-1.39223 -1.89845,-0.84725 -2.63535,2.83731 -0.71581,3.57904 0.68753,3.93016 2.4613,0.61581 z m 389.92367,-2.09043 c 0.028,-0.90234 0.2466,-6.87467 0.4864,-13.27185 0.2512,-6.70366 0.086,-11.27114 -0.3888,-10.78125 -1.137,1.17175 -2.1004,25.69373 -1.0094,25.69373 0.4738,0 0.8842,-0.73828 0.9118,-1.64063 z m -302.89148,-3.78916 c 0.0334,-4.30771 -0.0785,-4.50093 -2.72251,-4.70239 -3.21779,-0.2452 -3.51098,0.94101 -0.88231,3.56968 1.03125,1.03125 1.875,2.4375 1.875,3.125 0,1.09452 0.82783,2.5 1.47251,2.5 0.12238,0 0.23817,-2.02153 0.25731,-4.49229 z m -49.64094,2.26737 c 1.27128,-1.5318 0.41015,-4.33758 -1.33126,-4.33758 -3.99147,0 -5.30937,2.22871 -2.5545,4.31995 2.09331,1.58906 2.57976,1.59126 3.88576,0.0176 z m 228.63929,-5.40229 -0.20949,-4.81472 -1.21264,2.97184 c -0.87724,2.14989 -0.93985,3.48153 -0.22635,4.81471 1.53019,2.85919 1.87513,2.23733 1.64848,-2.97183 z m -194.2995,1.13536 c -0.44006,-1.38652 -1.40761,-1.94565 -3.36685,-1.94565 -2.99983,0 -3.73929,1.62794 -1.1087,2.44082 0.90235,0.27883 2.27344,0.84892 3.04688,1.26687 1.84955,0.99945 2.17697,0.59563 1.42867,-1.76204 z m 113.88383,0.11685 c 0,-0.92813 -0.50625,-2.19375 -1.125,-2.8125 -1.35578,-1.35578 -9.1875,-1.5156 -9.1875,-0.1875 0,0.51562 -0.65771,0.9375 -1.46158,0.9375 -0.81595,0 -1.18265,0.45131 -0.83014,1.0217 0.36903,0.59709 1.87198,0.78896 3.6165,0.46169 1.93932,-0.36382 3.62595,-0.0754 4.81451,0.82349 2.49159,1.88421 4.17321,1.78574 4.17321,-0.24438 z m -85.73438,-0.0965 c 0.48985,-0.46557 1.69439,-0.99291 2.67675,-1.17187 1.56834,-0.2857 1.49033,-0.48344 -0.63989,-1.62182 -2.9735,-1.58903 -5.36498,-0.81531 -5.36498,1.73578 0,1.97248 1.77294,2.53605 3.32812,1.05791 z m 256.31616,-3.76022 c 1.09275,-2.04186 1.19559,-17.90369 0.12731,-19.63227 -2.11715,-3.42554 -4.0799,0.13567 -3.49387,6.33918 0.32119,3.39959 0.58697,8.18498 0.59062,10.63419 0.009,4.64415 1.13513,5.72476 2.77594,2.6589 z m -128.54254,-0.7191 c 1.20752,-0.76602 4.94603,-1.51441 8.3078,-1.66311 5.7477,-0.25424 7.72048,-1.19072 7.76361,-3.68536 0.0186,-1.07493 -8.33773,0.0613 -9.88309,1.34386 -1.31148,1.08843 -9.86198,0.83229 -9.17844,-0.27495 0.58852,-0.95331 -4.19958,-3.05664 -5.04156,-2.21468 -0.3696,0.36961 -0.0682,1.0452 0.66981,1.50131 1.70479,1.05362 -1.49618,5.03584 -3.44634,4.28749 -1.26716,-0.48625 -1.68798,0.57433 -0.64265,1.61965 1.12189,1.12189 9.26618,0.47167 11.45086,-0.91421 z m 66.47638,-10.87561 c 0.77121,0.27652 1.17188,-0.54574 1.17188,-2.40499 0,-2.5911 -3.90094,-3.11764 -6.18389,-0.83469 -1.10758,1.10759 0.93598,4.30906 2.303,3.60791 0.84542,-0.43363 2.06448,-0.59934 2.70902,-0.36823 z m 71.99747,-7.57574 c 0.22416,-3.3531 0.009,-4.12803 -1.05253,-3.72223 -0.91387,0.35068 -1.33556,2.02017 -1.33556,5.28721 0,6.03809 1.96594,4.74976 2.38809,-1.56498 z m -9.88809,-9.62673 c 0,-1.23677 -0.65634,-1.42242 -3.43472,-0.97154 -5.48878,0.89071 -6.11419,2.50045 -0.97153,2.50045 3.44878,0 4.40625,-0.33223 4.40625,-1.52891 z m 9.80109,-3.66995 c 3.54521,-3.54517 2.89761,-4.40559 -1.59797,-2.12318 -4.99603,2.53648 -4.75453,2.32583 -4.0229,3.50967 1.02075,1.65158 3.09431,1.14009 5.62087,-1.38649 z m 11.17861,-5.86657 c 1.3706,-2.21774 -1.2906,-3.40584 -3.2501,-1.45101 -2.3923,2.38658 -1.6747,4.58383 1.0251,3.13894 0.9712,-0.5198 1.9725,-1.27936 2.225,-1.68793 z m -59.23214,-0.7677 c 0.47213,-0.29175 3.04932,-0.88716 5.72728,-1.32312 9.8505,-1.60364 14.30344,-2.84109 16.78407,-4.6643 1.39706,-1.02683 3.08456,-1.88037 3.75,-1.89676 0.66543,-0.0164 2.03062,-0.65058 3.03384,-1.40929 1.71994,-1.30083 1.6665,-1.354 -0.9375,-0.93272 -8.89584,1.43919 -31.77159,6.93724 -35.70928,8.5825 -1.69716,0.70913 -4.15397,1.28932 -5.45963,1.28932 -1.30561,0 -2.37384,0.4107 -2.37384,0.91268 0,0.94077 13.56656,0.44197 15.18506,-0.55831 z m -3.82865,-14.48161 c 2.77743,-0.55124 5.89359,-1.11881 6.92484,-1.26126 5.76966,-0.79701 26.71875,-7.99085 26.71875,-9.17513 0,-0.69342 -4.77328,-0.13845 -7.5,0.87199 -0.77344,0.28662 -3.30469,0.84381 -5.625,1.23822 -7.73644,1.31502 -15.40387,3.54908 -22.03125,6.41918 -6.99684,3.0301 -6.60909,3.51892 1.51266,1.907 z m 15.09281,-22.41132 c 9.59109,-2.70194 17.18381,-5.48381 16.54275,-6.06106 -1.01597,-0.9148 -34.02356,6.43265 -35.81578,7.97257 -2.10103,1.8052 10.52494,0.55295 19.27303,-1.91151 z m -9.10547,-13.72791 c 2.0625,-0.69781 4.80469,-1.27945 6.09375,-1.29253 4.81575,-0.0489 17.17041,-4.76276 15.36825,-5.86372 -1.00453,-0.61366 -15.13659,2.36254 -17.74669,3.7374 -1.01212,0.53319 -4.16062,1.27719 -6.99656,1.65332 -6.13866,0.81417 -6.63956,1.05277 -5.95509,2.8366 0.5625,1.46576 2.35143,1.25831 9.23634,-1.07107 z m 7.81472,-23.31884 c 9.48816,-3.06731 17.50734,-7.97719 13.029,-7.97719 -0.83288,0 -1.77506,0.42187 -2.09372,0.9375 -0.31866,0.51562 -2.13656,0.94207 -4.03969,0.94764 -4.41178,0.0129 -10.92534,1.98944 -16.71722,5.07268 -2.4974,1.32945 -5.2574,2.41718 -6.1334,2.41718 -0.876,0 -1.85353,0.42187 -2.17219,0.9375 -1.26253,2.04285 8.45794,0.79057 18.12722,-2.33531 z m -8.75222,-12.84768 c 3.09375,-0.50087 9,-1.9964 13.125,-3.32338 4.125,-1.327 8.02734,-2.54425 8.67187,-2.705 0.64454,-0.16075 1.17188,-1.19441 1.17188,-2.29701 0,-1.54196 -0.37875,-1.84858 -1.64063,-1.32826 -5.36615,2.21257 -11.69615,4.21164 -13.33593,4.21164 -1.04419,0 -1.89844,0.36796 -1.89844,0.81768 0,0.80065 -7.10691,2.46355 -8.85431,2.07177 -0.48703,-0.1092 -1.75266,0.21983 -2.8125,0.7312 -1.05985,0.51136 -3.19256,1.35975 -4.73944,1.88532 -3.85275,1.30903 2.05838,1.27236 10.3125,-0.0639 z m 4.14891,-23.2918 c 9.37678,-2.93906 18.79509,-9.55636 11.30147,-7.94048 -1.79457,0.38697 -4.5285,1.38446 -6.07538,2.21664 -1.54687,0.83219 -4.75172,1.56196 -7.12191,1.62172 -2.37009,0.0597 -5.7045,0.80464 -7.40962,1.65529 -1.70513,0.85064 -3.73856,1.54662 -4.51875,1.54662 -2.20809,0 -0.59344,1.07674 2.83087,1.88771 4.4955,1.06468 4.42604,1.07092 10.99332,-0.9875 z m -5.96363,-18.7544 c 7.92769,-1.24848 18.48066,-5.72324 14.85722,-6.2999 -2.32294,-0.36967 -16.23356,3.22466 -17.93053,4.63303 -0.65006,0.53946 -1.82503,0.73401 -2.61113,0.43235 -2.03634,-0.78141 -6.52125,1.36301 -4.94934,2.36647 0.65916,0.42077 1.64747,0.60183 2.19628,0.40236 0.54881,-0.19948 4.34569,-0.88992 8.4375,-1.53431 z m -9.90366,-13.49073 c 10.92872,-2.41215 21.10501,-6.72836 18.21694,-7.72657 -2.262,-0.78183 -27.24954,6.54122 -29.29325,8.58493 -0.93733,0.93734 5.03883,0.47421 11.07632,-0.85836 z m -6.56252,-13.06648 c 5.97621,-1.26165 11.02559,-2.53863 18.05993,-4.56731 1.941,-0.55977 4.04709,-1.6419 4.68019,-2.40476 0.96309,-1.16052 0.84609,-1.30045 -0.71653,-0.85699 -1.02722,0.29149 -8.30128,2.10189 -16.16457,4.02311 -7.86328,1.92122 -14.29687,3.85296 -14.29687,4.29274 0,1.08933 1.33764,1.01216 8.43785,-0.48679 z m 0.93715,-13.96853 c 3.35156,-1.08992 6.49453,-2.32219 6.98437,-2.73838 0.48985,-0.41618 1.78857,-0.75669 2.88619,-0.75669 2.13188,0 11.163,-5.52895 10.35338,-6.33852 -1.04813,-1.04817 -9.07931,1.59317 -30.06769,9.88881 -9.11638,3.60326 -1.27092,3.55923 9.84375,-0.0552 z m -9.93845,-11.0147 c 4.07293,-1.02622 9.76824,-3.1909 12.65625,-4.81042 2.88798,-1.61952 6.60826,-3.62106 8.26726,-4.44789 3.05391,-1.52203 3.99441,-2.90956 1.97213,-2.90956 -1.79897,0 -7.55616,1.99739 -11.08219,3.84484 -5.39963,2.82909 -16.24104,8.1107 -18.75,9.13443 -3.71748,1.51685 -1.07912,1.20823 6.93655,-0.8114 z M 335.625,227.78939 c 5.41406,-1.05706 11.74219,-2.50879 14.0625,-3.22606 6.92821,-2.14171 13.54458,-3.26157 25.12607,-4.25275 6.03222,-0.51625 13.9208,-1.34288 17.53018,-1.83694 3.60937,-0.49405 11.17522,-1.33349 16.81299,-1.86541 8.6281,-0.81406 10.81705,-1.35975 13.83007,-3.44778 3.18688,-2.20851 4.14578,-2.4141 8.74079,-1.87405 4.40901,0.51819 6.28742,0.17823 12.88868,-2.3327 8.08016,-3.07344 11.81122,-5.34345 6.85498,-4.17062 -1.51113,0.35759 -5.94082,1.03811 -9.84375,1.51226 -7.81191,0.94903 -15.37773,2.1224 -23.97126,3.71765 -3.09375,0.57432 -8.57813,1.41973 -12.1875,1.87873 -3.60938,0.45899 -13.73438,2.34481 -22.5,4.19072 -8.76563,1.8459 -20.36719,4.20194 -25.78125,5.23564 -15.46217,2.95215 -18.03137,3.477 -22.03125,4.50065 -2.0625,0.52783 -5.25874,1.19772 -7.10275,1.48865 -1.84401,0.29094 -4.16432,1.16289 -5.15625,1.93768 -1.72529,1.34761 -1.70187,1.38827 0.54025,0.93748 1.28906,-0.25917 6.77344,-1.33609 12.1875,-2.39315 z M 915.9375,217.5 c 1.03547,-1.03547 3.125,-1.875 4.66673,-1.875 3.39737,0 13.14577,-4.62624 13.14577,-6.23852 0,-0.88631 -1.14447,-0.82055 -4.84508,0.27842 -6.95898,2.0666 -8.4753,2.70842 -12.20987,5.16821 -1.83553,1.20897 -4.12797,2.70068 -5.09431,3.31488 -1.66016,1.0552 -1.64074,1.11979 0.35238,1.17188 1.16016,0.0303 2.95313,-0.78862 3.98438,-1.81987 z m 3.24431,-13.24997 c 10.31452,-3.23147 15.45224,-5.86597 14.09212,-7.2261 -0.17753,-0.17752 -4.12476,0.77103 -8.77164,2.1079 -4.64687,1.33687 -9.02852,2.43067 -9.73698,2.43067 -0.70847,0 -3.03449,0.84375 -5.16893,1.875 -2.13444,1.03125 -4.48235,1.875 -5.21755,1.875 -0.73521,0 -1.80869,0.56866 -2.38551,1.26368 -2.05939,2.48143 4.81098,1.55164 17.18849,-2.32615 z M 344.0625,203.45895 c 5.41406,-1.0038 12.79687,-2.46936 16.40625,-3.2568 6.08452,-1.32743 17.61922,-3.31099 27.63644,-4.75248 2.30942,-0.33233 4.42494,-0.74391 4.70117,-0.91462 0.27622,-0.17072 3.44919,-0.5673 7.05106,-0.88131 24.38166,-2.12555 32.05145,-3.13927 35.55197,-4.69893 1.57953,-0.70375 4.67964,-1.53728 6.88915,-1.85227 2.20951,-0.315 7.48295,-2.05577 11.71875,-3.86838 l 7.70146,-3.29565 -7.03125,0.55914 c -3.86719,0.30753 -9.35156,0.94455 -12.1875,1.4156 -17.61712,2.92624 -29.42034,4.65663 -35.15625,5.15402 -6.23762,0.5409 -23.42062,3.77194 -24.89039,4.68031 -0.37994,0.23481 -10.33347,2.38208 -22.11895,4.77171 -11.78549,2.38963 -22.29702,4.53574 -23.35896,4.76915 -1.8289,0.40197 -4.97513,4.04001 -3.46777,4.00982 0.39109,-0.007 5.14076,-0.83552 10.55482,-1.83931 z m 561.01692,-10.71704 c 0.55788,-0.68643 2.70183,-1.69465 4.76433,-2.24051 5.44451,-1.44093 9.86103,-3.26548 13.59375,-5.61582 l 3.28125,-2.06607 -3.00113,-0.004 c -5.69724,-0.007 -13.19697,2.65753 -19.15426,6.80431 -3.28329,2.28545 -6.60242,4.43389 -7.37586,4.77432 -0.77344,0.34043 0.45761,0.38864 2.73567,0.10714 2.27805,-0.28149 4.59836,-1.07344 5.15625,-1.75986 z M 372.65625,177.718 c 23.81124,-5.71708 47.00104,-10.31804 64.21875,-12.7413 2.83594,-0.39914 7.05469,-1.17968 9.375,-1.73453 2.32031,-0.55486 5.56494,-1.01915 7.21029,-1.03175 1.64535,-0.0127 3.23154,-0.41123 3.52486,-0.88583 0.61637,-0.99731 -14.39299,-0.46345 -24.3289,0.86534 -11.82481,1.58139 -21.26886,2.76228 -41.71875,5.21653 -11.08594,1.33046 -20.29688,2.80985 -20.46875,3.28753 -0.17188,0.47768 -0.89584,0.86851 -1.60882,0.86851 -0.71297,0 -2.68172,0.61122 -4.375,1.35828 -1.69327,0.74705 -6.36967,2.29144 -10.39199,3.43197 -21.12028,5.98868 -5.48291,7.13875 18.56331,1.36525 z m 526.03492,0.33412 c 8.0136,-1.11459 14.03077,-3.53557 17.21704,-6.92719 l 2.08362,-2.21792 -3.13654,0.76077 c -1.7251,0.41844 -4.98255,1.43779 -7.23879,2.26526 -2.25623,0.82745 -5.13114,1.50446 -6.3887,1.50446 -1.25756,0 -4.26311,0.79918 -6.67901,1.77596 -2.4159,0.97678 -5.8691,2.19934 -7.67379,2.71679 l -3.28125,0.94083 3.91654,0.0957 c 2.15409,0.0527 7.18549,-0.35896 11.18088,-0.91467 z m -15.31876,-16.40494 c 3.48764,-0.34012 6.57113,-0.99051 6.8522,-1.4453 0.28107,-0.45478 1.79349,-0.82688 3.36091,-0.82688 2.81071,0 9.67659,-2.67539 8.88846,-3.46353 -0.85461,-0.8546 -20.08313,1.90776 -25.42045,3.65188 -7.88712,2.57736 -9.49034,3.78049 -4.24103,3.18268 2.32031,-0.26425 7.07227,-0.75872 10.55991,-1.09885 z m -499.46616,-7.87126 c 3.09375,-0.49358 7.87795,-1.11124 10.63157,-1.37257 2.75361,-0.26134 6.33955,-0.71763 7.96875,-1.01398 2.60451,-0.47376 10.40333,-1.293 26.39968,-2.77323 2.57812,-0.23857 8.27344,-0.84804 12.65625,-1.35437 4.38281,-0.50634 11.87739,-1.18422 16.65462,-1.50641 6.30084,-0.42495 10.67709,-1.34727 15.9375,-3.35888 l 7.25163,-2.77307 -5.625,0.51489 c -3.09375,0.28319 -13.21875,0.9328 -22.5,1.44358 -9.28125,0.51079 -21.30469,1.33399 -26.71875,1.82934 -5.41406,0.49535 -13.68205,0.91484 -18.37332,0.9322 -12.71711,0.0471 -29.96992,4.12136 -33.0213,7.79805 -2.19475,2.64452 -0.0763,3.04076 8.73837,1.63445 z M 408.75,125.58793 c 4.38281,-0.52819 11.55469,-1.15659 15.9375,-1.39646 7.24843,-0.39669 20.73534,-1.76094 42.1875,-4.26738 20.18119,-2.35794 44.92439,-7.00397 39.84375,-7.48146 -3.8326,-0.36018 -23.1839,0.23037 -30.21971,0.92224 -4.00416,0.39374 -13.58451,0.80761 -21.28966,0.91971 -7.70516,0.11209 -14.26762,0.3634 -14.58326,0.55848 -0.31564,0.19507 -2.23799,0.55908 -4.27188,0.80891 -2.03389,0.24982 -6.0183,0.74221 -8.85424,1.09417 -2.83594,0.35198 -7.89844,1.59877 -11.25,2.77065 -3.35156,1.17189 -7.78125,2.42142 -9.84375,2.77675 -2.0625,0.35533 -5.22656,1.44352 -7.03125,2.41821 -4.06516,2.19553 -2.66144,2.32673 9.375,0.87618 z"
     id="path4259"
     inkscape:connector-curvature="0" />
</svg>
